<svg xmlns="http://www.w3.org/2000/svg" width="16" height="17" viewBox="0 0 16 17"><path fill-rule="evenodd" d="M13.624 4.791c0 .766-.328 1.455-.85 1.936.304.665.475 1.408.473 2.191a5.224 5.224 0 01-1.16 3.293l.996.996a.56.56 0 010 .794.56.56 0 01-.794 0l-.999-.998a5.25 5.25 0 01-6.585 0l-.996.996a.56.56 0 01-.795 0 .56.56 0 010-.795l.996-.996a5.237 5.237 0 01-1.16-3.292c0-.78.172-1.524.476-2.19a2.623 2.623 0 114.162-3.025 5.34 5.34 0 011.224 0 2.623 2.623 0 015.013 1.09zm-1.125 0c0-.827-.672-1.5-1.5-1.5a1.49 1.49 0 00-1.248.673c.967.342 1.806.96 2.42 1.762.204-.255.329-.581.329-.935zM5 3.291c-.827 0-1.5.673-1.5 1.5 0 .354.125.68.33.935a5.241 5.241 0 012.422-1.762A1.5 1.5 0 005 3.29zM3.875 8.916A4.122 4.122 0 008 13.04a4.122 4.122 0 004.124-4.124A4.122 4.122 0 008 4.79a4.122 4.122 0 00-4.125 4.125zm4.31-1.79a.505.505 0 10-1.01 0v2.356a.505.505 0 00.317.469l1.684.673a.505.505 0 00.375-.937L8.185 9.14V7.126z"/></svg>