<svg xmlns="http://www.w3.org/2000/svg" width="16" height="17" viewBox="0 0 16 17"><path fill-rule="evenodd" d="M5.352 2.365A.563.563 0 015.75 2.2h4.5c.15 0 .292.06.398.165l3.187 3.188A.562.562 0 0114 5.95v4.5c0 .15-.06.293-.165.398l-3.187 3.188a.562.562 0 01-.398.164h-4.5a.562.562 0 01-.398-.164l-3.187-3.188A.563.563 0 012 10.45v-4.5c0-.149.06-.292.165-.397l3.187-3.188zm.631.96L3.125 6.183v4.034l2.858 2.858h4.034l2.858-2.858V6.183l-2.858-2.858H5.983zM8 5.2c.31 0 .563.252.563.563v2.625a.563.563 0 01-1.126 0V5.763c0-.31.252-.563.563-.563zm0 6a.75.75 0 100-1.5.75.75 0 000 1.5z"/></svg>