<svg xmlns="http://www.w3.org/2000/svg" width="16" height="17" viewBox="0 0 16 17"><path fill-rule="evenodd" d="M2 2.766a.6.6 0 01.6-.6h4.2a.6.6 0 01.6.6v4.2a.6.6 0 01-.6.6H2.6a.6.6 0 01-.6-.6v-4.2zm1.2.6v3h3v-3h-3zm5.4-.6a.6.6 0 01.6-.6h4.2a.6.6 0 01.6.6v4.2a.6.6 0 01-.6.6H9.2a.6.6 0 01-.6-.6v-4.2zm1.2.6v3h3v-3h-3zm-7.2 5.4a.6.6 0 00-.6.6v4.2a.6.6 0 00.6.6h4.2a.6.6 0 00.6-.6v-4.2a.6.6 0 00-.6-.6H2.6zm.6 4.2v-3h3v3h-3z"/><path d="M11.3 9.066a.6.6 0 01.6.6v1.2h1.2a.6.6 0 110 1.2h-1.2v1.2a.6.6 0 01-1.2 0v-1.2H9.5a.6.6 0 010-1.2h1.2v-1.2a.6.6 0 01.6-.6z"/></svg>