<svg xmlns="http://www.w3.org/2000/svg" width="16" height="17" viewBox="0 0 16 17"><path fill-rule="evenodd" d="M3.313 4.075a.188.188 0 00-.188.188v1.125c0 .103.084.187.188.187h9.374a.188.188 0 00.188-.187V4.263a.187.187 0 00-.188-.188H3.313zM2 4.263c0-.725.588-1.313 1.313-1.313h9.374c.725 0 1.313.588 1.313 1.313v1.125A1.313 1.313 0 0112.687 6.7H3.313A1.313 1.313 0 012 5.388V4.263zM3.313 7.45a.563.563 0 01.562.563v4.125c0 .103.084.187.188.187h7.875a.187.187 0 00.187-.187V8.013a.562.562 0 111.125 0v4.125a1.313 1.313 0 01-1.313 1.312H4.064a1.313 1.313 0 01-1.313-1.312V8.013a.563.563 0 01.563-.563zm3.374.75a.563.563 0 100 1.125h2.625a.562.562 0 100-1.125H6.688z"/></svg>