<svg xmlns="http://www.w3.org/2000/svg" width="16" height="17" viewBox="0 0 16 17"><path fill-rule="evenodd" d="M8 2.2a3.75 3.75 0 00-3.75 3.75v2.21a.188.188 0 01-.031.105L2.94 10.18a1.138 1.138 0 00.947 1.77h8.224a1.138 1.138 0 00.947-1.77l-1.277-1.916a.188.188 0 01-.032-.104V5.95A3.75 3.75 0 008 2.2zM5.375 5.95a2.625 2.625 0 115.25 0v2.21c0 .26.077.513.22.729l1.278 1.916a.013.013 0 01.002.007v.005l-.004.005a.019.019 0 01-.004.003H3.883l-.004-.003-.003-.005-.001-.005c0-.002 0-.005.002-.007l1.278-1.916a1.32 1.32 0 00.22-.728V5.95z"/><path d="M9.488 12.888a1.5 1.5 0 01-2.976 0c-.013-.103.072-.188.175-.188h2.625c.104 0 .19.085.176.188z"/></svg>