<svg xmlns="http://www.w3.org/2000/svg" width="16" height="17" viewBox="0 0 16 17"><path fill-rule="evenodd" d="M8 3.325c-.748 0-1.422.312-1.9.815a.562.562 0 01-.815-.777A3.75 3.75 0 0111.75 5.95v1.78a.562.562 0 11-1.125 0V5.95A2.625 2.625 0 008 3.325zM5.137 5.433L2.892 3.807a.562.562 0 10-.66.912l2.018 1.46v1.982a.188.188 0 01-.031.104L2.94 10.18a1.138 1.138 0 00.947 1.77h8.332l.888.642a.562.562 0 10.66-.91l-1.032-.747a.338.338 0 00-.01-.008L5.148 5.441a.554.554 0 00-.011-.008zm5.529 5.392L5.375 6.994v1.167c0 .259-.077.512-.22.728l-1.278 1.916a.014.014 0 00-.002.007v.005l.004.005a.015.015 0 00.004.003h6.783zM8 14.2a1.5 1.5 0 001.488-1.313c.013-.102-.072-.187-.176-.187H6.688c-.104 0-.19.085-.176.188A1.5 1.5 0 008 14.2z"/></svg>