<svg xmlns="http://www.w3.org/2000/svg" width="16" height="17" viewBox="0 0 16 17"><path fill-rule="evenodd" d="M7.063 2.541A1.313 1.313 0 005.75 3.854v.937H3.312A1.313 1.313 0 002 6.104v6.375c0 .724.588 1.312 1.313 1.312h9.374A1.313 1.313 0 0014 12.48V6.104a1.313 1.313 0 00-1.313-1.313H10.25v-.937A1.313 1.313 0 008.937 2.54H7.063zm2.062 2.25v-.937a.187.187 0 00-.188-.188H7.063a.188.188 0 00-.188.188v.937h2.25zM5.75 5.916H3.312a.188.188 0 00-.187.188v.937a1.5 1.5 0 001.5 1.5h6.75a1.5 1.5 0 001.5-1.5v-.937a.188.188 0 00-.188-.188H5.75zm-1.125 3.75a2.613 2.613 0 01-1.5-.47v3.283c0 .103.084.187.188.187h9.374a.188.188 0 00.188-.187V9.196c-.44.307-.964.471-1.5.47h-6.75z"/></svg>