<svg xmlns="http://www.w3.org/2000/svg" width="16" height="17" viewBox="0 0 16 17"><path fill-rule="evenodd" d="M5.563 2.2c.31 0 .562.252.562.563V3.7h3.75v-.937a.562.562 0 111.125 0V3.7h.938c.724 0 1.312.588 1.312 1.313v7.875c0 .725-.588 1.312-1.313 1.312H4.064a1.312 1.312 0 01-1.313-1.312V5.013c0-.725.588-1.313 1.313-1.313H5v-.937c0-.31.252-.563.563-.563zm6.375 2.625c.103 0 .187.084.187.188V6.7h-8.25V5.013c0-.104.084-.188.188-.188h7.875zm-8.063 3v5.063c0 .104.084.187.188.187h7.875a.187.187 0 00.187-.187V7.825h-8.25z"/><path d="M5.281 10.148h.938c.154 0 .281-.109.281-.242v-.808c0-.133-.127-.242-.281-.242H5.28c-.154 0-.281.109-.281.242v.808c0 .133.127.242.281.242zm3.469-1.05v.808c0 .133-.127.242-.281.242H7.53c-.154 0-.281-.109-.281-.242v-.808c0-.133.127-.242.281-.242h.938c.154 0 .281.109.281.242zm2.25 0v.808c0 .133-.127.242-.281.242H9.78c-.154 0-.281-.109-.281-.242v-.808c0-.133.127-.242.281-.242h.938c.154 0 .281.109.281.242zm-2.25 1.939v.808c0 .133-.127.242-.281.242H7.53c-.154 0-.281-.109-.281-.242v-.808c0-.133.127-.242.281-.242h.938c.154 0 .281.109.281.242zm-2.25 0v.808c0 .133-.127.242-.281.242H5.28c-.154 0-.281-.109-.281-.242v-.808c0-.133.127-.242.281-.242h.938c.154 0 .281.109.281.242zm4.5 0v.808c0 .133-.127.242-.281.242H9.78c-.154 0-.281-.109-.281-.242v-.808c0-.133.127-.242.281-.242h.938c.154 0 .281.109.281.242z"/></svg>