<svg xmlns="http://www.w3.org/2000/svg" width="16" height="17" viewBox="0 0 16 17"><path fill-rule="evenodd" d="M8 6.166a2.5 2.5 0 100 5 2.5 2.5 0 000-5zm-1.5 2.5a1.5 1.5 0 113 0 1.5 1.5 0 01-3 0z"/><path fill-rule="evenodd" d="M6.5 3.166a.5.5 0 00-.416.223l-.852 1.277H3.5a1.5 1.5 0 00-1.5 1.5v5.5a1.5 1.5 0 001.5 1.5h9a1.5 1.5 0 001.5-1.5v-5.5a1.5 1.5 0 00-1.5-1.5h-1.732L9.916 3.39a.5.5 0 00-.416-.223h-3zm-.584 2.278l.852-1.278h2.464l.852 1.278a.5.5 0 00.416.222h2a.5.5 0 01.5.5v5.5a.5.5 0 01-.5.5h-9a.5.5 0 01-.5-.5v-5.5a.5.5 0 01.5-.5h2a.5.5 0 00.416-.222z"/></svg>