<svg width="16" height="17" viewBox="0 0 16 17" fill="none" xmlns="http://www.w3.org/2000/svg">
<path fill-rule="evenodd" clip-rule="evenodd" d="M8 14.1664C11.3137 14.1664 14 11.4801 14 8.16638C14 4.85267 11.3137 2.16638 8 2.16638C4.68629 2.16638 2 4.85267 2 8.16638C2 11.4801 4.68629 14.1664 8 14.1664ZM10.8352 6.87663C11.0549 6.65696 11.0549 6.3008 10.8352 6.08113C10.6156 5.86147 10.2594 5.86147 10.0398 6.08113L7.0625 9.05839L5.96025 7.95613C5.74058 7.73647 5.38442 7.73647 5.16475 7.95613C4.94508 8.1758 4.94508 8.53196 5.16475 8.75163L6.66475 10.2516C6.88442 10.4713 7.24058 10.4713 7.46025 10.2516L10.8352 6.87663Z" fill="#272431"/>
</svg>
