<svg width="16" height="17" viewBox="0 0 16 17" fill="none" xmlns="http://www.w3.org/2000/svg">
<path d="M10.8352 6.91069C11.0549 6.69102 11.0549 6.33486 10.8352 6.11519C10.6156 5.89552 10.2594 5.89552 10.0398 6.11519L7.0625 9.09244L5.96025 7.99019C5.74058 7.77052 5.38442 7.77052 5.16475 7.99019C4.94508 8.20986 4.94508 8.56602 5.16475 8.78569L6.66475 10.2857C6.88442 10.5054 7.24058 10.5054 7.46025 10.2857L10.8352 6.91069Z" fill="#272431"/>
<path fill-rule="evenodd" clip-rule="evenodd" d="M2 8.20044C2 4.88673 4.68629 2.20044 8 2.20044C11.3137 2.20044 14 4.88673 14 8.20044C14 11.5141 11.3137 14.2004 8 14.2004C4.68629 14.2004 2 11.5141 2 8.20044ZM3.125 8.20044C3.125 5.50805 5.30761 3.32544 8 3.32544C10.6924 3.32544 12.875 5.50805 12.875 8.20044C12.875 10.8928 10.6924 13.0754 8 13.0754C5.30761 13.0754 3.125 10.8928 3.125 8.20044Z" fill="#272431"/>
</svg>
