<svg width="16" height="17" viewBox="0 0 16 17" fill="none" xmlns="http://www.w3.org/2000/svg">
<path fill-rule="evenodd" clip-rule="evenodd" d="M13.7803 4.03873C13.921 4.17957 14 4.37051 14 4.56958C14 4.76866 13.921 4.95959 13.7803 5.10044L6.5186 12.3622C6.37774 12.5028 6.18682 12.5818 5.98774 12.5818C5.78867 12.5818 5.59773 12.5028 5.45689 12.3622L2.20162 9.10692C2.06893 8.96451 1.99669 8.77617 2.00012 8.58154C2.00355 8.38693 2.08239 8.20125 2.22003 8.0636C2.35766 7.92597 2.54335 7.84713 2.73797 7.8437C2.93258 7.84026 3.12093 7.91251 3.26334 8.0452L5.98774 10.7696L12.7186 4.03873C12.8595 3.89805 13.0504 3.81903 13.2495 3.81903C13.4485 3.81903 13.6395 3.89805 13.7803 4.03873Z" fill="#272431"/>
</svg>
