<svg width="16" height="16" viewBox="0 0 16 16" fill="none" xmlns="http://www.w3.org/2000/svg">
<path fill-rule="evenodd" clip-rule="evenodd" d="M7.39394 2.25105C7.72868 1.91632 8.27139 1.91632 8.60613 2.25105L12.8918 6.53677C13.2266 6.8715 13.2266 7.41421 12.8918 7.74895C12.5571 8.08368 12.0144 8.08368 11.6797 7.74895L8.00003 4.06933L4.32041 7.74895C3.98568 8.08368 3.44296 8.08368 3.10823 7.74895C2.77349 7.41421 2.77349 6.8715 3.10823 6.53677L7.39394 2.25105Z" fill="#272431"/>
<path fill-rule="evenodd" clip-rule="evenodd" d="M7.39394 8.25105C7.72868 7.91632 8.27139 7.91632 8.60613 8.25105L12.8918 12.5368C13.2266 12.8715 13.2266 13.4142 12.8918 13.7489C12.5571 14.0837 12.0144 14.0837 11.6797 13.7489L8.00003 10.0693L4.32041 13.7489C3.98568 14.0837 3.44296 14.0837 3.10823 13.7489C2.77349 13.4142 2.77349 12.8715 3.10823 12.5368L7.39394 8.25105Z" fill="#272431"/>
</svg>
