<svg width="16" height="17" viewBox="0 0 16 17" fill="none" xmlns="http://www.w3.org/2000/svg">
<path fill-rule="evenodd" clip-rule="evenodd" d="M3.125 8.16638C3.12499 7.25017 3.38318 6.35251 3.86995 5.5763C4.35673 4.8001 5.05239 4.17678 5.87718 3.77782C6.70196 3.37885 7.62248 3.22039 8.53319 3.32059C9.44391 3.4208 10.308 3.77563 11.0262 4.34438L4.178 11.1926C3.49457 10.3322 3.12334 9.26524 3.125 8.16638ZM4.97375 11.9884C5.91101 12.7306 7.08832 13.1025 8.28186 13.0334C9.47539 12.9643 10.6019 12.4591 11.4473 11.6137C12.2927 10.7683 12.7979 9.64177 12.867 8.44824C12.9361 7.2547 12.5642 6.07739 11.822 5.14013L4.97375 11.9884ZM8 2.16638C6.4087 2.16638 4.88258 2.79852 3.75736 3.92374C2.63214 5.04896 2 6.57508 2 8.16638C2 9.75766 2.63214 11.2838 3.75736 12.4091C4.88258 13.5342 6.4087 14.1664 8 14.1664C9.59128 14.1664 11.1175 13.5342 12.2427 12.4091C13.3678 11.2838 14 9.75766 14 8.16638C14 6.57508 13.3678 5.04896 12.2427 3.92374C11.1175 2.79852 9.59128 2.16638 8 2.16638Z" fill="#272431"/>
</svg>
