<svg xmlns="http://www.w3.org/2000/svg" width="16" height="17" viewBox="0 0 16 17"><path fill-rule="evenodd" d="M6.071 2.166a.643.643 0 00-.642.643v2.572c0 .355.287.643.642.643H9.93a.643.643 0 00.643-.643V2.809a.643.643 0 00-.643-.643H6.07zm.643 2.572V3.452h2.572v1.286H6.714zm-2.464-.4a.643.643 0 10-.643-1.113 1.5 1.5 0 00-.75 1.299v8.142a1.5 1.5 0 001.5 1.5h7.286a1.5 1.5 0 001.5-1.5V4.524a1.5 1.5 0 00-.75-1.3.643.643 0 10-.643 1.114.214.214 0 01.107.186v8.142a.214.214 0 01-.214.215H4.357a.214.214 0 01-.214-.215V4.524c0-.079.042-.148.107-.186z"/></svg>