<svg width="16" height="17" viewBox="0 0 16 17" fill="none" xmlns="http://www.w3.org/2000/svg">
<path fill-rule="evenodd" clip-rule="evenodd" d="M3.125 8.16638C3.125 6.87345 3.63861 5.63347 4.55286 4.71924C5.46709 3.805 6.70707 3.29138 8 3.29138C9.29293 3.29138 10.5329 3.805 11.4472 4.71924C12.3614 5.63347 12.875 6.87345 12.875 8.16638C12.875 9.45931 12.3614 10.6993 11.4472 11.6135C10.5329 12.5278 9.29293 13.0414 8 13.0414C6.70707 13.0414 5.46709 12.5278 4.55286 11.6135C3.63861 10.6993 3.125 9.45931 3.125 8.16638ZM8 2.16638C6.4087 2.16638 4.88258 2.79852 3.75736 3.92374C2.63214 5.04896 2 6.57508 2 8.16638C2 9.75766 2.63214 11.2838 3.75736 12.4091C4.88258 13.5342 6.4087 14.1664 8 14.1664C9.59128 14.1664 11.1175 13.5342 12.2427 12.4091C13.3678 11.2838 14 9.75766 14 8.16638C14 6.57508 13.3678 5.04896 12.2427 3.92374C11.1175 2.79852 9.59128 2.16638 8 2.16638ZM8.375 5.97747C8.375 5.82829 8.31573 5.68521 8.21025 5.57973C8.10476 5.47424 7.96168 5.41497 7.8125 5.41497C7.66332 5.41497 7.52024 5.47424 7.41475 5.57973C7.30927 5.68521 7.25 5.82829 7.25 5.97747V8.60247C7.25002 8.71481 7.28369 8.82456 7.34664 8.9176C7.40961 9.01063 7.49898 9.08268 7.60325 9.12447L9.47825 9.87447C9.61557 9.92465 9.76707 9.91932 9.90057 9.85972C10.0341 9.8001 10.1391 9.69084 10.1934 9.55508C10.2478 9.41933 10.2471 9.26776 10.1916 9.13249C10.1361 8.99723 10.03 8.88891 9.896 8.83047L8.375 8.22147V5.97747Z" fill="#272431"/>
</svg>
