<svg xmlns="http://www.w3.org/2000/svg" width="16" height="17" viewBox="0 0 16 17"><path fill-rule="evenodd" d="M3.125 4.663a.188.188 0 01.188-.188h6.374a.188.188 0 01.188.188v4.125a.187.187 0 01-.188.187H7.063c-.15 0-.293.06-.398.165l-2.04 2.04V9.539a.563.563 0 00-.563-.563h-.75a.188.188 0 01-.187-.187V4.663zm.188-1.313A1.313 1.313 0 002 4.663v4.125c0 .724.588 1.313 1.313 1.313H3.5v1.157a1.093 1.093 0 001.865.772l1.93-1.93h2.393A1.313 1.313 0 0011 8.789V4.663A1.313 1.313 0 009.687 3.35H3.314zm9.562 2.813a.187.187 0 00-.188-.188h-.374a.562.562 0 110-1.125h.374c.725 0 1.313.588 1.313 1.313v4.125a1.313 1.313 0 01-1.313 1.313H12.5v1.157a1.093 1.093 0 01-1.865.772l-1.72-1.72a.564.564 0 01.612-.925c.07.03.131.075.183.13l1.665 1.665v-1.642a.562.562 0 01.563-.563h.75a.188.188 0 00.187-.187V6.163z"/></svg>