<svg xmlns="http://www.w3.org/2000/svg" width="16" height="17" viewBox="0 0 16 17"><path d="M9.5 9.479c0-.31.252-.563.563-.563h1.124a.563.563 0 010 1.125h-1.124A.563.563 0 019.5 9.48z"/><path fill-rule="evenodd" d="M3.313 3.666C2.587 3.666 2 4.254 2 4.98v6.375c0 .725.588 1.312 1.313 1.312h9.374c.725 0 1.313-.587 1.313-1.312V4.979c0-.725-.588-1.313-1.313-1.313H3.313zm9.562 2.25V4.98a.187.187 0 00-.188-.188H3.313a.188.188 0 00-.188.188v.937h9.75zm-9.75 1.125h9.75v4.313a.187.187 0 01-.188.187H3.313a.187.187 0 01-.188-.187V7.04z"/></svg>