<svg width="16" height="17" viewBox="0 0 16 17" fill="none" xmlns="http://www.w3.org/2000/svg">
<path fill-rule="evenodd" clip-rule="evenodd" d="M7.52867 11.2938C7.78902 11.5541 8.21113 11.5541 8.47148 11.2938L11.8048 7.96047C12.0651 7.70013 12.0651 7.27802 11.8048 7.01767C11.5444 6.75733 11.1224 6.75733 10.862 7.01767L8.66674 9.21292V3.26688C8.66674 2.8987 8.36826 2.60022 8.00008 2.60022C7.63189 2.60022 7.33341 2.8987 7.33341 3.26688V9.21292L5.13817 7.01767C4.87782 6.75733 4.45571 6.75733 4.19537 7.01767C3.93502 7.27802 3.93502 7.70013 4.19537 7.96047L7.52867 11.2938ZM4.22233 13.2669C3.85414 13.2669 3.55566 13.5654 3.55566 13.9336C3.55566 14.3017 3.85414 14.6002 4.22233 14.6002H11.7778C12.146 14.6002 12.4445 14.3017 12.4445 13.9336C12.4445 13.5654 12.146 13.2669 11.7778 13.2669H4.22233Z" fill="#272431"/>
</svg>
