<svg xmlns="http://www.w3.org/2000/svg" width="16" height="17" viewBox="0 0 16 17"><path fill-rule="evenodd" d="M12.307 2.166c-.45 0-.88.179-1.197.496L5.956 7.816a.542.542 0 00-.142.252l-.543 2.17a.542.542 0 00.658.657l2.17-.542a.541.541 0 00.252-.143l5.153-5.153a1.693 1.693 0 00-1.197-2.89zm-.43 1.263a.608.608 0 11.86.86L7.69 9.338l-1.147.287.287-1.147 5.047-5.048z"/><path d="M3.627 3.317A1.627 1.627 0 002 4.945v7.594a1.627 1.627 0 001.627 1.627h7.595a1.627 1.627 0 001.627-1.627V8.742a.542.542 0 00-1.085 0v3.797a.542.542 0 01-.542.543H3.627a.543.543 0 01-.542-.543V4.945a.542.542 0 01.542-.543h3.798a.542.542 0 100-1.085H3.627z"/></svg>