<svg xmlns="http://www.w3.org/2000/svg" width="16" height="17" viewBox="0 0 16 17"><path d="M6.382 3.495h-3.19A.192.192 0 003 3.687v3.19c0 .17.207.256.328.135l1.187-1.187L7.19 8.5l-2.675 2.675-1.187-1.187a.192.192 0 00-.328.136v3.19c0 .105.086.192.192.192h3.19a.192.192 0 00.136-.329L5.33 11.991 8 9.32l2.669 2.67-1.187 1.186a.192.192 0 00.136.329h3.19a.192.192 0 00.192-.193v-3.19a.192.192 0 00-.328-.135l-1.187 1.187L8.81 8.5l2.675-2.675 1.187 1.187A.192.192 0 0013 6.876v-3.19a.192.192 0 00-.192-.191h-3.19a.192.192 0 00-.136.328L10.67 5.01 8 7.679l-2.669-2.67 1.187-1.186a.192.192 0 00-.136-.328z"/></svg>