<svg xmlns="http://www.w3.org/2000/svg" width="16" height="17" viewBox="0 0 16 17"><path fill-rule="evenodd" d="M3.164 8.148c.316-.475.95-1.339 1.81-2.078.865-.744 1.9-1.312 3.026-1.312 1.127 0 2.16.568 3.026 1.312.86.74 1.494 1.603 1.81 2.078a.09.09 0 010 .105c-.316.475-.95 1.339-1.81 2.078-.865.744-1.9 1.312-3.026 1.312-1.127 0-2.16-.568-3.026-1.312-.86-.74-1.494-1.603-1.81-2.078a.09.09 0 010-.105zM8 3.61c-1.516 0-2.808.759-3.774 1.59-.971.835-1.673 1.794-2.018 2.313a1.238 1.238 0 000 1.375c.345.519 1.047 1.478 2.018 2.313.966.831 2.258 1.59 3.774 1.59s2.808-.759 3.774-1.59c.971-.835 1.673-1.794 2.018-2.313a1.238 1.238 0 000-1.375c-.345-.519-1.047-1.478-2.018-2.313C10.808 4.369 9.516 3.61 8 3.61zm0 6.12a1.53 1.53 0 100-3.06 1.53 1.53 0 000 3.06z"/></svg>