<svg xmlns="http://www.w3.org/2000/svg" width="16" height="17" viewBox="0 0 16 17"><path fill-rule="evenodd" d="M2.107 3.933a.562.562 0 01.785-.126l10.875 7.875a.562.562 0 11-.66.912l-1.686-1.222C10.51 12.092 9.344 12.7 8 12.7c-1.486 0-2.753-.743-3.7-1.558-.952-.819-1.64-1.759-1.978-2.268a1.213 1.213 0 010-1.347c.265-.4.746-1.065 1.401-1.729l-1.49-1.08a.562.562 0 01-.126-.785zm2.54 2.534A10.658 10.658 0 003.259 8.15a.09.09 0 00-.016.05c0 .016.004.034.016.052.31.465.931 1.312 1.775 2.037.848.73 1.862 1.287 2.966 1.287.896 0 1.732-.367 2.468-.894l-1.672-1.21A1.5 1.5 0 016.543 7.84L4.647 6.466zM8 4.825c-.387 0-.762.069-1.124.189a.562.562 0 01-.355-1.068A4.672 4.672 0 018 3.7c1.486 0 2.753.744 3.7 1.559.952.818 1.64 1.759 1.978 2.267.272.41.272.939 0 1.348-.083.125-.186.275-.308.441a.562.562 0 11-.907-.665c.11-.151.204-.286.278-.398a.09.09 0 000-.103c-.31-.465-.931-1.312-1.774-2.037-.849-.73-1.863-1.287-2.967-1.287z"/></svg>