<svg xmlns="http://www.w3.org/2000/svg" width="16" height="17" viewBox="0 0 16 17"><path fill-rule="evenodd" d="M5.563 3.291a.937.937 0 100 1.875h1.731c-.175-.613-.407-1.05-.659-1.344-.322-.377-.685-.53-1.072-.53zM3.5 4.23c0 .337.081.656.225.937h-.413A1.312 1.312 0 002 6.48v1.5c0 .523.307.975.75 1.186v3.689c0 .725.588 1.312 1.313 1.312h7.875c.724 0 1.312-.587 1.312-1.312v-3.69c.443-.21.75-.663.75-1.186v-1.5c0-.725-.588-1.313-1.313-1.313h-.412a2.062 2.062 0 00-1.838-3c-.737 0-1.405.315-1.927.923a3.814 3.814 0 00-.51.782 3.814 3.814 0 00-.51-.782c-.522-.608-1.19-.923-1.928-.923A2.063 2.063 0 003.5 4.229zm5.206.937h1.732a.937.937 0 100-1.875c-.388 0-.75.154-1.073.53-.252.295-.484.732-.66 1.345zM3.313 6.291a.188.188 0 00-.188.188v1.5c0 .103.084.187.188.187h4.124V6.291H3.313zm5.25 0v1.875h4.124a.187.187 0 00.188-.187v-1.5a.187.187 0 00-.188-.188H8.564zm0 3h3.562v3.563a.187.187 0 01-.188.187H8.563v-3.75zm-1.126 0v3.75H4.063a.187.187 0 01-.187-.187V9.29h3.563z"/></svg>