<svg xmlns="http://www.w3.org/2000/svg" width="16" height="17" viewBox="0 0 16 17"><path fill-rule="evenodd" d="M3.157 7.604h2.05a8.344 8.344 0 011.186-3.711 8.8 8.8 0 01.264-.414 4.88 4.88 0 00-3.5 4.125zm2.05 1.125h-2.05a4.88 4.88 0 003.5 4.125 8.783 8.783 0 01-.264-.414 8.343 8.343 0 01-1.186-3.71zm1.128 0h3.33a7.227 7.227 0 01-1.022 3.132c-.23.383-.46.69-.643.912a7.478 7.478 0 01-.643-.912A7.227 7.227 0 016.335 8.73zm3.33-1.125h-3.33A7.228 7.228 0 017.357 4.47c.23-.382.46-.689.643-.911.184.222.413.529.643.911.46.768.916 1.831 1.022 3.133zm1.128 1.125a8.344 8.344 0 01-1.186 3.711 8.76 8.76 0 01-.264.414 4.88 4.88 0 003.5-4.125h-2.05zm2.05-1.125h-2.05a8.344 8.344 0 00-1.186-3.711 8.799 8.799 0 00-.264-.414 4.88 4.88 0 013.5 4.125zM8 2.166a6 6 0 100 12 6 6 0 000-12z"/></svg>