<svg xmlns="http://www.w3.org/2000/svg" width="16" height="17" viewBox="0 0 16 17"><path fill-rule="evenodd" d="M2.6 2.166a.6.6 0 00-.6.6v4.2a.6.6 0 00.6.6h4.2a.6.6 0 00.6-.6v-4.2a.6.6 0 00-.6-.6H2.6zm.6 4.2v-3h3v3h-3zm6-4.2a.6.6 0 00-.6.6v4.2a.6.6 0 00.6.6h4.2a.6.6 0 00.6-.6v-4.2a.6.6 0 00-.6-.6H9.2zm.6 4.2v-3h3v3h-3zm-1.2 3a.6.6 0 01.6-.6h4.2a.6.6 0 01.6.6v4.2a.6.6 0 01-.6.6H9.2a.6.6 0 01-.6-.6v-4.2zm1.2.6v3h3v-3h-3zm-7.2-1.2a.6.6 0 00-.6.6v4.2a.6.6 0 00.6.6h4.2a.6.6 0 00.6-.6v-4.2a.6.6 0 00-.6-.6H2.6zm.6 4.2v-3h3v3h-3z"/></svg>