<svg xmlns="http://www.w3.org/2000/svg" width="16" height="17" viewBox="0 0 16 17"><path fill-rule="evenodd" d="M5.188 4.042c-1.002 0-2.063.873-2.063 2.25 0 1.612 1.185 3.107 2.524 4.26A15.414 15.414 0 008 12.213a15.413 15.413 0 002.351-1.659c1.339-1.154 2.524-2.65 2.524-4.262 0-1.376-1.06-2.25-2.063-2.25-1.03 0-1.956.74-2.271 1.843a.562.562 0 01-1.082 0C7.144 4.78 6.217 4.04 5.188 4.04zM8 12.854l-.259.5-.001-.002-.005-.002-.013-.007-.05-.027a15.504 15.504 0 01-.822-.485 16.558 16.558 0 01-1.936-1.426C3.534 10.215 2 8.43 2 6.292c0-1.999 1.564-3.375 3.188-3.375 1.16 0 2.177.6 2.812 1.514.635-.913 1.652-1.514 2.813-1.514C12.435 2.917 14 4.293 14 6.292c0 2.137-1.534 3.923-2.914 5.113a16.559 16.559 0 01-2.758 1.911l-.05.027-.013.007-.005.002-.001.001L8 12.854zm0 0l.259.5a.563.563 0 01-.518 0l.259-.5z"/></svg>