<svg xmlns="http://www.w3.org/2000/svg" width="16" height="17" viewBox="0 0 16 17"><path fill-rule="evenodd" d="M8.127 3.468a.204.204 0 00-.254 0l-4.28 3.424a.204.204 0 00-.077.16v5.721c0 .113.092.204.204.204h2.242v-4.28a.611.611 0 01.611-.611h2.854a.611.611 0 01.611.611v4.28h2.242a.204.204 0 00.204-.204V7.05a.206.206 0 00-.077-.158l-4.28-3.424zm-1.019-.955a1.427 1.427 0 011.783 0l4.28 3.424c.338.27.536.68.536 1.114v5.722A1.427 1.427 0 0112.28 14.2H9.427a.611.611 0 01-.612-.611v-4.28h-1.63v4.28a.612.612 0 01-.612.611H3.72a1.427 1.427 0 01-1.427-1.427V7.05c0-.432.198-.842.536-1.113l4.28-3.424z"/></svg>