<svg xmlns="http://www.w3.org/2000/svg" width="16" height="17" viewBox="0 0 16 17"><path fill-rule="evenodd" d="M3.313 4.041a.188.188 0 00-.188.188v7.875c0 .104.084.187.188.187h.705a.578.578 0 01.022-.022L8.598 7.71a1.313 1.313 0 011.808-.046L12.875 9.9V4.23a.187.187 0 00-.188-.188H3.313zm9.374 8.25h-7.08l3.786-3.785a.187.187 0 01.259-.006l3.223 2.916v.688a.187.187 0 01-.188.187zM14 12.104V4.229c0-.725-.588-1.313-1.313-1.313H3.313C2.587 2.916 2 3.504 2 4.23v7.875c0 .725.588 1.312 1.313 1.312h9.374c.725 0 1.313-.587 1.313-1.312zM6.125 6.666a.375.375 0 11-.75 0 .375.375 0 01.75 0zm1.125 0a1.5 1.5 0 11-3 0 1.5 1.5 0 013 0z"/></svg>