<svg width="16" height="17" viewBox="0 0 16 17" fill="none" xmlns="http://www.w3.org/2000/svg">
<path d="M6.875 4.02539C6.875 4.64671 7.37868 5.15039 8 5.15039C8.62132 5.15039 9.125 4.64671 9.125 4.02539C9.125 3.40407 8.62132 2.90039 8 2.90039C7.37868 2.90039 6.875 3.40407 6.875 4.02539Z" fill="#272431"/>
<path d="M6.875 8.90039C6.875 9.52171 7.37868 10.0254 8 10.0254C8.62132 10.0254 9.125 9.52171 9.125 8.90039C9.125 8.27907 8.62132 7.77539 8 7.77539C7.37868 7.77539 6.875 8.27907 6.875 8.90039Z" fill="#272431"/>
<path d="M8 14.9004C7.37868 14.9004 6.875 14.3967 6.875 13.7754C6.875 13.1541 7.37868 12.6504 8 12.6504C8.62132 12.6504 9.125 13.1541 9.125 13.7754C9.125 14.3967 8.62132 14.9004 8 14.9004Z" fill="#272431"/>
</svg>
