<svg width="16" height="17" viewBox="0 0 16 17" fill="none" xmlns="http://www.w3.org/2000/svg">
<path d="M3.125 9.72522C3.74632 9.72522 4.25 9.22154 4.25 8.60022C4.25 7.9789 3.74632 7.47522 3.125 7.47522C2.50368 7.47522 2 7.9789 2 8.60022C2 9.22154 2.50368 9.72522 3.125 9.72522Z" fill="#272431"/>
<path d="M8 9.72522C8.62132 9.72522 9.125 9.22154 9.125 8.60022C9.125 7.9789 8.62132 7.47522 8 7.47522C7.37868 7.47522 6.875 7.9789 6.875 8.60022C6.875 9.22154 7.37868 9.72522 8 9.72522Z" fill="#272431"/>
<path d="M14 8.60022C14 9.22154 13.4963 9.72522 12.875 9.72522C12.2537 9.72522 11.75 9.22154 11.75 8.60022C11.75 7.9789 12.2537 7.47522 12.875 7.47522C13.4963 7.47522 14 7.9789 14 8.60022Z" fill="#272431"/>
</svg>
