<svg xmlns="http://www.w3.org/2000/svg" width="16" height="17" viewBox="0 0 16 17"><path fill-rule="evenodd" d="M6.875 6.291a3 3 0 112.049 2.847.562.562 0 00-.576.135l-.769.768h-.891a.562.562 0 00-.563.563v.892l-.045.045h-.893a.562.562 0 00-.562.563v.892l-.045.045H3.312a.187.187 0 01-.187-.187v-1.267l3.768-3.768a.562.562 0 00.136-.576 2.996 2.996 0 01-.154-.952zm3-4.125a4.125 4.125 0 00-4.011 5.091l-3.7 3.7a.562.562 0 00-.164.397v1.5c0 .725.588 1.312 1.313 1.312h1.5a.562.562 0 00.397-.164l.375-.375a.562.562 0 00.165-.398v-.563h.563a.562.562 0 00.397-.164l.375-.375a.562.562 0 00.165-.398v-.563h.563a.562.562 0 00.397-.164l.7-.7a4.125 4.125 0 10.966-8.136zm.375 4.5a.75.75 0 100-1.5.75.75 0 000 1.5z"/></svg>