<svg xmlns="http://www.w3.org/2000/svg" width="16" height="17" viewBox="0 0 16 17"><path fill-rule="evenodd" d="M8.563 3.291a.563.563 0 00-1.125 0v.938h-.739c-.228 0-.453.06-.651.173l-.967.552a.188.188 0 01-.093.025H3.313a.562.562 0 100 1.125h.32L2.05 9.623a.562.562 0 00.115.629l.398-.398-.398.398.001.001.002.002.005.004.011.012a1.393 1.393 0 00.146.12c.095.071.229.16.403.247.35.175.857.34 1.517.34.66 0 1.167-.165 1.517-.34a2.64 2.64 0 00.515-.337l.034-.03.011-.012.005-.004.002-.002v-.001l-.396-.398.397.398a.562.562 0 00.115-.629l-1.583-3.52h.121c.229 0 .453-.059.652-.172l.966-.552a.187.187 0 01.093-.025h.739v7.125H5.563a.562.562 0 100 1.125h4.875a.563.563 0 000-1.125H8.562V5.354h.739a.18.18 0 01.093.025l.966.552c.199.113.423.173.652.173h.121L9.55 9.623a.562.562 0 00.115.629l.398-.398-.398.398.001.001.002.002.005.004.011.012a1.33 1.33 0 00.146.12c.095.071.229.16.403.247.35.175.857.34 1.517.34.66 0 1.167-.165 1.517-.34a2.636 2.636 0 00.514-.337l.035-.03.007-.007.004-.005.005-.004.002-.002v-.001l-.396-.398.397.398a.563.563 0 00.115-.629l-1.583-3.52h.32a.563.563 0 000-1.124h-1.675a.187.187 0 01-.093-.025l-.967-.552a1.313 1.313 0 00-.651-.173h-.739V3.29zM3.27 9.65c.214.101.539.205.979.205.44 0 .765-.104.979-.205L4.25 7.475l-.979 2.174zm7.5 0c.214.101.539.205.979.205.44 0 .765-.104.979-.205l-.979-2.174-.979 2.174z"/></svg>