<svg xmlns="http://www.w3.org/2000/svg" width="16" height="17" viewBox="0 0 16 17"><path fill-rule="evenodd" d="M7.756 2.224a.545.545 0 01.488 0l5.454 2.727a.545.545 0 010 .976L8.244 8.654a.545.545 0 01-.488 0L2.302 5.927a.545.545 0 010-.976l5.454-2.727zM3.766 5.44L8 7.557l4.235-2.118L8 3.322 3.765 5.439z"/><path d="M2.058 10.65a.545.545 0 01.731-.244L8 13.01l5.21-2.605a.545.545 0 01.488.975l-5.454 2.73a.546.546 0 01-.488 0l-5.454-2.73a.545.545 0 01-.244-.731z"/><path d="M2.79 7.678a.545.545 0 10-.488.976l5.454 2.727a.545.545 0 00.488 0l5.454-2.727a.545.545 0 00-.488-.976L8 10.284 2.79 7.678z"/></svg>