<svg width="16" height="17" viewBox="0 0 16 17" fill="none" xmlns="http://www.w3.org/2000/svg">
<path fill-rule="evenodd" clip-rule="evenodd" d="M5.30646 8.12877C5.04611 8.38912 5.04611 8.81123 5.30646 9.07157L8.63975 12.4049C8.90009 12.6652 9.3222 12.6652 9.58255 12.4049C9.84289 12.1445 9.84289 11.7225 9.58255 11.4621L7.3873 9.26683L13.3333 9.26683C13.7015 9.26683 14 8.96836 14 8.60017C14 8.23199 13.7015 7.93351 13.3333 7.93351L7.3873 7.93351L9.58255 5.73827C9.84289 5.47792 9.84289 5.05581 9.58255 4.79546C9.3222 4.53512 8.90009 4.53512 8.63975 4.79546L5.30646 8.12877ZM3.33332 4.82242C3.33332 4.45424 3.03484 4.15576 2.66666 4.15576C2.29849 4.15576 2 4.45424 2 4.82242L2 12.3779C2 12.7461 2.29849 13.0446 2.66666 13.0446C3.03484 13.0446 3.33332 12.7461 3.33332 12.3779L3.33332 4.82242Z" fill="#272431"/>
</svg>
