<svg xmlns="http://www.w3.org/2000/svg" width="16" height="17" viewBox="0 0 16 17"><path fill-rule="evenodd" d="M9.942 2.2h3.827a.23.23 0 01.231.231V6.26a.23.23 0 01-.394.163l-1.424-1.424-3.462 3.46a.692.692 0 01-.979-.979l3.462-3.461-1.424-1.425a.23.23 0 01.163-.394zm-6.327.924C2.723 3.124 2 3.847 2 4.739v7.846c0 .892.723 1.615 1.615 1.615h7.846c.893 0 1.616-.723 1.616-1.615v-3.23a.692.692 0 10-1.385 0v3.23a.23.23 0 01-.23.23H3.614a.23.23 0 01-.23-.23V4.74a.23.23 0 01.23-.23h3.231a.692.692 0 000-1.385h-3.23z"/></svg>