<svg xmlns="http://www.w3.org/2000/svg" width="16" height="17" viewBox="0 0 16 17"><path fill-rule="evenodd" d="M3.603 3.766a.4.4 0 00-.579-.358l-.802.4a.4.4 0 00.357.716l.224-.111v2.154H2.4a.4.4 0 000 .8h1.605a.4.4 0 100-.8h-.402v-2.8zm2.397.6a.6.6 0 01.6-.6h6.8a.6.6 0 110 1.2H6.6a.6.6 0 01-.6-.6zm0 4a.6.6 0 01.6-.6h6.8a.6.6 0 110 1.2H6.6a.6.6 0 01-.6-.6zm0 4a.6.6 0 01.6-.6h6.8a.6.6 0 110 1.2H6.6a.6.6 0 01-.6-.6zm-3.26-2.344l.002-.003a.681.681 0 01.115-.123.528.528 0 01.343-.13c.156 0 .246.056.3.118a.454.454 0 01.103.3c0 .363-.216.547-.64.863l-.029.02c-.38.284-.934.695-.934 1.5a.4.4 0 00.4.4h1.602a.4.4 0 000-.8H2.918c.105-.159.28-.298.523-.478l.038-.028c.376-.28.925-.686.925-1.476a1.25 1.25 0 00-.303-.83 1.17 1.17 0 00-.9-.388c-.384 0-.671.162-.854.314a1.487 1.487 0 00-.279.307l-.005.009-.002.003-.001.002a.4.4 0 00.68.42zm-.34-.211l-.342-.208.342.208z"/></svg>