<svg width="16" height="17" viewBox="0 0 16 17" fill="none" xmlns="http://www.w3.org/2000/svg">
<path fill-rule="evenodd" clip-rule="evenodd" d="M2.85714 4.73778C3.33053 4.73778 3.71429 4.35402 3.71429 3.88064C3.71429 3.40726 3.33053 3.0235 2.85714 3.0235C2.38376 3.0235 2 3.40726 2 3.88064C2 4.35402 2.38376 4.73778 2.85714 4.73778ZM6.07143 3.45207C5.71639 3.45207 5.42857 3.73989 5.42857 4.09493C5.42857 4.44996 5.71639 4.73778 6.07143 4.73778H13.3571C13.7122 4.73778 14 4.44996 14 4.09493C14 3.73989 13.7122 3.45207 13.3571 3.45207H6.07143ZM6.07143 7.73778C5.71639 7.73778 5.42857 8.0256 5.42857 8.38064C5.42857 8.73568 5.71639 9.0235 6.07143 9.0235H13.3571C13.7122 9.0235 14 8.73568 14 8.38064C14 8.0256 13.7122 7.73778 13.3571 7.73778H6.07143ZM6.07143 12.0235C5.71639 12.0235 5.42857 12.3113 5.42857 12.6664C5.42857 13.0214 5.71639 13.3092 6.07143 13.3092H13.3571C13.7122 13.3092 14 13.0214 14 12.6664C14 12.3113 13.7122 12.0235 13.3571 12.0235H6.07143ZM3.71429 8.16636C3.71429 8.63974 3.33053 9.0235 2.85714 9.0235C2.38376 9.0235 2 8.63974 2 8.16636C2 7.69297 2.38376 7.30921 2.85714 7.30921C3.33053 7.30921 3.71429 7.69297 3.71429 8.16636ZM2.85714 13.3092C3.33053 13.3092 3.71429 12.9255 3.71429 12.4521C3.71429 11.9787 3.33053 11.5949 2.85714 11.5949C2.38376 11.5949 2 11.9787 2 12.4521C2 12.9255 2.38376 13.3092 2.85714 13.3092Z" fill="#272431"/>
</svg>
