<svg xmlns="http://www.w3.org/2000/svg" width="16" height="17" viewBox="0 0 16 17"><path d="M8.878 13.196a.879.879 0 11-1.757 0 .879.879 0 011.757 0zM9.16 3.137a1.16 1.16 0 11-2.321 0 1.16 1.16 0 012.322 0zm3.357 8.58a.97.97 0 11-1.941 0 .97.97 0 011.94 0zm-7.311 0a.764.764 0 11-1.528 0 .764.764 0 011.528 0zm8.895-3.551a1.072 1.072 0 11-2.144 0 1.072 1.072 0 012.144 0zm-10.437 0a.694.694 0 11-1.387 0 .694.694 0 011.387 0zm9.021-3.561a1.139 1.139 0 11-2.278 0 1.139 1.139 0 012.278 0zm-7.642 0a.6.6 0 11-1.202 0 .6.6 0 011.202 0z"/></svg>