<svg width="16" height="17" viewBox="0 0 16 17" fill="none" xmlns="http://www.w3.org/2000/svg">
<path d="M8.87839 13.1959C8.87839 13.6812 8.48498 14.0746 7.99969 14.0746C7.5144 14.0746 7.12099 13.6812 7.12099 13.1959C7.12099 12.7106 7.5144 12.3172 7.99969 12.3172C8.48498 12.3172 8.87839 12.7106 8.87839 13.1959Z" fill="#272431"/>
<path d="M9.1605 3.13682C9.1605 3.77794 8.64077 4.29768 7.99964 4.29768C7.35851 4.29768 6.83878 3.77794 6.83878 3.13682C6.83878 2.49569 7.35851 1.97595 7.99964 1.97595C8.64077 1.97595 9.1605 2.49569 9.1605 3.13682Z" fill="#272431"/>
<path d="M12.5167 11.7167C12.5167 12.2527 12.0822 12.6872 11.5462 12.6872C11.0102 12.6872 10.5757 12.2527 10.5757 11.7167C10.5757 11.1808 11.0102 10.7463 11.5462 10.7463C12.0822 10.7463 12.5167 11.1808 12.5167 11.7167Z" fill="#272431"/>
<path d="M5.20646 11.7167C5.20646 12.1388 4.86427 12.481 4.44217 12.481C4.02007 12.481 3.67789 12.1388 3.67789 11.7167C3.67789 11.2946 4.02007 10.9525 4.44217 10.9525C4.86427 10.9525 5.20646 11.2946 5.20646 11.7167Z" fill="#272431"/>
<path d="M14.1015 8.16644C14.1015 8.75853 13.6215 9.23852 13.0294 9.23852C12.4373 9.23852 11.9573 8.75853 11.9573 8.16644C11.9573 7.57434 12.4373 7.09435 13.0294 7.09435C13.6215 7.09435 14.1015 7.57434 14.1015 8.16644Z" fill="#272431"/>
<path d="M3.66401 8.16644C3.66401 8.54946 3.35351 8.85996 2.97049 8.85996C2.58747 8.85996 2.27698 8.54946 2.27698 8.16644C2.27698 7.78343 2.58747 7.47293 2.97049 7.47293C3.35351 7.47293 3.66401 7.78343 3.66401 8.16644Z" fill="#272431"/>
<path d="M12.6851 4.60481C12.6851 5.23374 12.1752 5.74359 11.5463 5.74359C10.9174 5.74359 10.4075 5.23374 10.4075 4.60481C10.4075 3.97588 10.9174 3.46603 11.5463 3.46603C12.1752 3.46603 12.6851 3.97588 12.6851 4.60481Z" fill="#272431"/>
<path d="M5.04286 4.6048C5.04286 4.93665 4.77384 5.20566 4.44199 5.20566C4.11015 5.20566 3.84113 4.93665 3.84113 4.6048C3.84113 4.27295 4.11015 4.00394 4.44199 4.00394C4.77384 4.00394 5.04286 4.27295 5.04286 4.6048Z" fill="#272431"/>
</svg>
