<svg width="16" height="17" viewBox="0 0 16 17" fill="none" xmlns="http://www.w3.org/2000/svg">
<path fill-rule="evenodd" clip-rule="evenodd" d="M10.8154 4.52655C11.1851 4.89622 11.4785 5.33512 11.6786 5.81817C11.8787 6.30122 11.9817 6.81896 11.9817 7.34183C11.9817 7.86469 11.8787 8.38242 11.6786 8.86548C11.4785 9.34853 11.1851 9.78742 10.8154 10.1571L8.00008 12.9708L5.18481 10.1563C4.81511 9.78663 4.52184 9.34768 4.32176 8.86464C4.12167 8.3816 4.01869 7.86387 4.01869 7.34103C4.01869 6.81818 4.12167 6.30046 4.32176 5.81741C4.52184 5.33437 4.81511 4.89546 5.18481 4.52576C5.55452 4.15605 5.99343 3.86278 6.47647 3.6627C6.95952 3.46261 7.47724 3.35963 8.00008 3.35963C8.52293 3.35963 9.04065 3.46261 9.5237 3.6627C10.0068 3.86278 10.4456 4.15605 10.8154 4.52576V4.52655ZM11.6593 11.001C12.3831 10.2773 12.876 9.35518 13.0758 8.35129C13.2755 7.34741 13.173 6.30683 12.7813 5.36117C12.3896 4.41552 11.7263 3.60725 10.8753 3.03858C10.0242 2.46991 9.02364 2.16638 8.00008 2.16638C6.97652 2.16638 5.97595 2.46991 5.12489 3.03858C4.27384 3.60725 3.61053 4.41552 3.21884 5.36117C2.82716 6.30683 2.7247 7.34741 2.92443 8.35129C3.12415 9.35518 3.61707 10.2773 4.34087 11.001L7.15534 13.8163C7.26625 13.9273 7.39794 14.0153 7.54289 14.0754C7.68783 14.1355 7.84319 14.1664 8.00008 14.1664C8.15698 14.1664 8.31234 14.1355 8.45729 14.0754C8.60223 14.0153 8.73392 13.9273 8.84482 13.8163L11.6593 11.001ZM8.00008 8.93417C8.42241 8.93417 8.82742 8.7664 9.12605 8.46778C9.42467 8.16916 9.59243 7.76414 9.59243 7.34183C9.59243 6.9195 9.42467 6.51449 9.12605 6.21586C8.82742 5.91724 8.42241 5.74948 8.00008 5.74948C7.57777 5.74948 7.17275 5.91724 6.87413 6.21586C6.5755 6.51449 6.40773 6.9195 6.40773 7.34183C6.40773 7.76414 6.5755 8.16916 6.87413 8.46778C7.17275 8.7664 7.57777 8.93417 8.00008 8.93417Z" fill="#272431"/>
</svg>
