<svg xmlns="http://www.w3.org/2000/svg" width="16" height="17" viewBox="0 0 16 17"><path fill-rule="evenodd" d="M3.313 3.7C2.588 3.7 2 4.289 2 5.014v6.375c0 .725.588 1.312 1.313 1.312h9.374c.725 0 1.313-.587 1.313-1.312V5.585a.67.67 0 000-.02v-.552c0-.725-.588-1.312-1.313-1.312H3.313zm9.562 1.553v-.24a.187.187 0 00-.188-.187H3.313a.188.188 0 00-.188.187v.24L8 8.111l4.875-2.858zm-9.75 1.304v4.83c0 .104.084.188.188.188h9.374a.187.187 0 00.188-.187v-4.83l-4.59 2.69a.562.562 0 01-.57 0l-4.59-2.69z"/></svg>