<svg xmlns="http://www.w3.org/2000/svg" width="16" height="17" viewBox="0 0 16 17"><path fill-rule="evenodd" d="M13.678 2.442A.562.562 0 0114 2.95l-.917-.436-.011.009-.058.042c-.054.038-.14.097-.258.168a7.42 7.42 0 01-1.098.539c-.991.396-2.513.803-4.592.803a1.2 1.2 0 00-.646-.187H5A3 3 0 003.876 9.67l-.001.03c0 1.74.365 2.949.61 3.563.196.494.672.75 1.138.75h.897c.514 0 .921-.291 1.16-.643a1.58 1.58 0 00.232-1.272 9.507 9.507 0 01-.287-2.387c1.795.065 3.133.433 4.033.793a7.42 7.42 0 011.098.539 4.267 4.267 0 01.316.21l.01.009h.001a.563.563 0 00.917-.437V2.95l-.918-.436a.562.562 0 01.596-.072zM5.002 9.888c.024 1.476.337 2.48.528 2.96a.045.045 0 00.02.022.139.139 0 00.073.018h.897c.062 0 .151-.035.23-.15a.456.456 0 00.074-.356A10.527 10.527 0 016.5 9.885a1.23 1.23 0 01-.081.003H5.002zm2.623-1.303c1.951.066 3.43.466 4.451.874.308.124.574.248.799.363V3.954a9.03 9.03 0 01-.799.362c-1.021.41-2.5.81-4.451.875v3.394zm5.457-6.07zM3.125 6.887c0-1.036.84-1.875 1.875-1.875h1.42a.08.08 0 01.08.08v3.59a.08.08 0 01-.08.08H5a1.875 1.875 0 01-1.875-1.875z"/></svg>