<svg width="16" height="17" viewBox="0 0 16 17" fill="none" xmlns="http://www.w3.org/2000/svg">
<path d="M5.81816 7.65497C5.51691 7.65497 5.27271 7.89918 5.27271 8.20042C5.27271 8.50167 5.51691 8.74588 5.81816 8.74588H10.1818C10.483 8.74588 10.7273 8.50167 10.7273 8.20042C10.7273 7.89918 10.483 7.65497 10.1818 7.65497H5.81816Z" fill="#272431"/>
<path fill-rule="evenodd" clip-rule="evenodd" d="M8 2.20044C4.68629 2.20044 2 4.88673 2 8.20044C2 11.5141 4.68629 14.2004 8 14.2004C11.3137 14.2004 14 11.5141 14 8.20044C14 4.88673 11.3137 2.20044 8 2.20044ZM3.09091 8.20044C3.09091 5.48922 5.28878 3.29135 8 3.29135C10.7112 3.29135 12.9091 5.48922 12.9091 8.20044C12.9091 10.9117 10.7112 13.1095 8 13.1095C5.28878 13.1095 3.09091 10.9117 3.09091 8.20044Z" fill="#272431"/>
</svg>
