<svg width="16" height="17" viewBox="0 0 16 17" fill="none" xmlns="http://www.w3.org/2000/svg">
<path fill-rule="evenodd" clip-rule="evenodd" d="M9.24339 2.35982C9.42459 2.17862 9.69426 2.11861 9.93521 2.20586C12.305 3.06404 14 5.33461 14 8.00274C14 11.4068 11.2404 14.1664 7.83636 14.1664C5.16823 14.1664 2.89766 12.4714 2.03948 10.1016C1.95222 9.86064 2.01224 9.59097 2.19344 9.40977C2.37465 9.22856 2.64432 9.16855 2.88527 9.2558C3.39913 9.44189 3.95415 9.54365 4.5344 9.54365C7.20904 9.54365 9.37727 7.37543 9.37727 4.70079C9.37727 4.12053 9.27551 3.56551 9.08942 3.05165C9.00217 2.8107 9.06218 2.54103 9.24339 2.35982ZM10.6663 4.07215C10.6873 4.27895 10.698 4.48868 10.698 4.70079C10.698 8.10487 7.93849 10.8644 4.5344 10.8644C4.3223 10.8644 4.11257 10.8537 3.90578 10.8327C4.78554 12.0524 6.21881 12.8456 7.83636 12.8456C10.511 12.8456 12.6792 10.6774 12.6792 8.00274C12.6792 6.3852 11.886 4.95192 10.6663 4.07215Z" fill="#272431"/>
</svg>
