<svg xmlns="http://www.w3.org/2000/svg" width="16" height="17" viewBox="0 0 16 17"><path fill-rule="evenodd" d="M3.125 12.854c0 .103.084.187.187.187H5v-.937c0-.31.252-.563.562-.563h1.875c.311 0 .563.252.563.563v.937h1.687a.187.187 0 00.188-.187V3.479a.187.187 0 00-.188-.188H3.312a.188.188 0 00-.187.188v9.375zm.187 1.312A1.312 1.312 0 012 12.854V3.479c0-.725.588-1.313 1.312-1.313h6.375c.725 0 1.313.588 1.313 1.313v9.375c0 .064-.005.126-.013.187h1.7a.187.187 0 00.188-.187V8.38a.188.188 0 00-.084-.156l-.79-.527a.563.563 0 01.623-.936l.791.527c.366.244.585.653.585 1.092v4.474c0 .725-.588 1.312-1.313 1.312h-2.624a.56.56 0 01-.148-.02c-.074.014-.15.02-.228.02h-2.25a.562.562 0 01-.562-.562v-.938h-.75v.938c0 .31-.252.562-.563.562h-2.25zM4.25 4.98c0-.31.252-.563.562-.563h.375a.562.562 0 110 1.125h-.375a.562.562 0 01-.562-.562zm.562 1.687a.562.562 0 000 1.125h.375a.563.563 0 000-1.125h-.375zM4.25 9.48c0-.31.252-.563.562-.563h.375a.563.563 0 010 1.125h-.375a.562.562 0 01-.562-.562zm3.562-.563a.562.562 0 000 1.125h.375a.562.562 0 100-1.125h-.375zM7.25 7.23c0-.31.252-.563.562-.563h.375a.563.563 0 010 1.125h-.375a.562.562 0 01-.562-.562zm.562-2.813a.562.562 0 000 1.125h.375a.563.563 0 000-1.125h-.375z"/></svg>