<svg xmlns="http://www.w3.org/2000/svg" width="16" height="17" viewBox="0 0 16 17"><path fill-rule="evenodd" d="M10.53 2.603a1.49 1.49 0 012.108 0l.925.925a1.49 1.49 0 010 2.108L6.23 12.971c-.18.18-.401.31-.645.38l-2.77.79a.639.639 0 01-.79-.79l.792-2.769c.07-.243.2-.465.38-.644l7.334-7.335zm1.205.904a.213.213 0 00-.301 0l-1.076 1.075 1.226 1.226 1.076-1.075a.213.213 0 000-.301l-.925-.925zM10.68 6.712L9.454 5.486 4.1 10.84a.213.213 0 00-.054.093l-.476 1.663 1.664-.475a.213.213 0 00.092-.054l5.356-5.356z"/></svg>