<svg xmlns="http://www.w3.org/2000/svg" width="16" height="17" viewBox="0 0 16 17"><path fill-rule="evenodd" d="M6.144 5.153a1.523 1.523 0 100 3.046 1.523 1.523 0 000-3.046zM3.48 6.676a2.666 2.666 0 114.49 1.942 4.194 4.194 0 012.31 3.11.571.571 0 01-1.128.18 3.047 3.047 0 00-6.017 0 .571.571 0 11-1.129-.18 4.194 4.194 0 012.31-3.11 2.658 2.658 0 01-.838-1.942zm6.854-1.142a.571.571 0 000 1.142 1.143 1.143 0 01.508 2.166.571.571 0 00-.317.512v.268a.571.571 0 00.437.556c.914.22 1.647.914 1.92 1.807a.571.571 0 101.093-.335 3.816 3.816 0 00-1.95-2.294 2.286 2.286 0 00-1.69-3.822z"/></svg>