<svg width="16" height="17" viewBox="0 0 16 17" fill="none" xmlns="http://www.w3.org/2000/svg">
<path fill-rule="evenodd" clip-rule="evenodd" d="M6.14438 5.15281C5.74038 5.15281 5.35292 5.3133 5.06725 5.59897C4.78158 5.88465 4.62108 6.2721 4.62108 6.6761C4.62108 7.0801 4.78158 7.46756 5.06725 7.75323C5.35292 8.0389 5.74038 8.1994 6.14438 8.1994C6.54838 8.1994 6.93584 8.0389 7.22152 7.75323C7.50719 7.46756 7.66767 7.0801 7.66767 6.6761C7.66767 6.2721 7.50719 5.88465 7.22152 5.59897C6.93584 5.3133 6.54838 5.15281 6.14438 5.15281ZM3.47861 6.6761C3.47856 6.23425 3.58834 5.79931 3.79807 5.41041C4.00781 5.02151 4.31092 4.69084 4.68015 4.44814C5.04938 4.20544 5.47315 4.05833 5.91334 4.02004C6.35353 3.98175 6.79634 4.05347 7.20193 4.22876C7.60753 4.40405 7.96319 4.6774 8.23693 5.02425C8.51067 5.37109 8.69391 5.78054 8.77016 6.21576C8.84641 6.65098 8.81327 7.09834 8.67374 7.51758C8.53421 7.93682 8.29266 8.31481 7.97081 8.61754C8.57774 8.91198 9.10469 9.34847 9.50697 9.88997C9.90929 10.4315 10.175 11.0621 10.2817 11.7281C10.3054 11.8778 10.2687 12.0308 10.1796 12.1534C10.0906 12.276 9.95643 12.3582 9.80677 12.382C9.6571 12.4057 9.5041 12.369 9.38147 12.2799C9.25885 12.1909 9.17662 12.0568 9.15289 11.9071C9.03763 11.1922 8.67156 10.5417 8.12028 10.0722C7.56899 9.60262 6.86852 9.34476 6.14438 9.34476C5.42024 9.34476 4.71977 9.60262 4.16848 10.0722C3.61719 10.5417 3.25112 11.1922 3.13587 11.9071C3.12407 11.9812 3.09778 12.0523 3.05852 12.1162C3.01925 12.1802 2.96777 12.2358 2.90702 12.2798C2.84626 12.3239 2.77743 12.3556 2.70444 12.373C2.63145 12.3905 2.55573 12.3934 2.48162 12.3816C2.4075 12.3698 2.33644 12.3435 2.27248 12.3042C2.20852 12.265 2.15293 12.2135 2.10886 12.1527C2.0648 12.092 2.03314 12.0232 2.01568 11.9501C1.99822 11.8772 1.99531 11.8015 2.00711 11.7273C2.114 11.0615 2.37984 10.4313 2.78211 9.89007C3.18438 9.34885 3.71121 8.91261 4.31795 8.6183C4.05254 8.36928 3.84109 8.0684 3.69672 7.73431C3.55234 7.40022 3.4781 7.04005 3.47861 6.6761ZM10.3334 5.53363C10.182 5.53363 10.0366 5.59381 9.92955 5.70094C9.82238 5.80807 9.76221 5.95336 9.76221 6.10487C9.76221 6.25637 9.82238 6.40166 9.92955 6.50879C10.0366 6.61592 10.182 6.6761 10.3334 6.6761C10.5911 6.67612 10.8412 6.76326 11.0432 6.92337C11.2451 7.08349 11.387 7.30716 11.4458 7.55808C11.5045 7.80899 11.4767 8.07241 11.3669 8.30553C11.257 8.53865 11.0716 8.72779 10.8407 8.84223C10.7455 8.88959 10.6654 8.96259 10.6094 9.05302C10.5534 9.14345 10.5238 9.2477 10.5239 9.35406V9.62216C10.5237 9.75046 10.5667 9.87509 10.646 9.97596C10.7253 10.0768 10.8363 10.1481 10.961 10.1782C11.875 10.3983 12.6077 11.0921 12.8819 11.9848C12.9036 12.0568 12.9394 12.1238 12.9871 12.182C13.0349 12.2401 13.0936 12.2883 13.16 12.3237C13.2263 12.3591 13.2991 12.381 13.3739 12.3882C13.4488 12.3955 13.5244 12.3878 13.5963 12.3658C13.6682 12.3437 13.7351 12.3076 13.793 12.2597C13.851 12.2117 13.8989 12.1527 13.934 12.0862C13.9691 12.0197 13.9907 11.9469 13.9976 11.8719C14.0045 11.797 13.9965 11.7215 13.9741 11.6497C13.8216 11.155 13.5701 10.6966 13.2349 10.3023C12.8997 9.9079 12.4878 9.58581 12.0243 9.35558C12.322 9.02802 12.5183 8.62102 12.5891 8.18405C12.6599 7.74708 12.6022 7.29895 12.4232 6.89413C12.244 6.4893 11.9512 6.14522 11.5803 5.90369C11.2093 5.66217 10.7761 5.5336 10.3334 5.53363Z" fill="#272431"/>
</svg>
