<svg width="16" height="17" viewBox="0 0 16 17" fill="none" xmlns="http://www.w3.org/2000/svg">
<path d="M13.1382 3.02833C13.3985 3.28868 13.3985 3.71079 13.1382 3.97114L3.80482 13.3045C3.54447 13.5648 3.12236 13.5648 2.86201 13.3045C2.60166 13.0441 2.60166 12.622 2.86201 12.3617L12.1953 3.02833C12.4557 2.76798 12.8778 2.76798 13.1382 3.02833Z" fill="#272431"/>
<path d="M3.00024 4.66638C3.00024 3.83795 3.67182 3.16638 4.50024 3.16638C5.32867 3.16638 6.00024 3.83795 6.00024 4.66638C6.00024 5.49481 5.32867 6.16638 4.50024 6.16638C3.67182 6.16638 3.00024 5.49481 3.00024 4.66638Z" fill="#272431"/>
<path d="M11.5 10.1664C10.6716 10.1664 10 10.838 10 11.6664C10 12.4948 10.6716 13.1664 11.5 13.1664C12.3284 13.1664 13 12.4948 13 11.6664C13 10.838 12.3284 10.1664 11.5 10.1664Z" fill="#272431"/>
</svg>
