<svg width="16" height="17" viewBox="0 0 16 17" fill="none" xmlns="http://www.w3.org/2000/svg">
<path fill-rule="evenodd" clip-rule="evenodd" d="M10.3042 6.28736C10.3042 6.89865 10.0613 7.48491 9.62907 7.91716C9.19682 8.34942 8.61055 8.59225 7.99926 8.59225C7.38796 8.59225 6.80171 8.34942 6.36946 7.91716C5.9372 7.48491 5.69436 6.89865 5.69436 6.28736C5.69436 5.67606 5.9372 5.0898 6.36946 4.65755C6.80171 4.2253 7.38796 3.98247 7.99926 3.98247C8.61055 3.98247 9.19682 4.2253 9.62907 4.65755C10.0613 5.0898 10.3042 5.67606 10.3042 6.28736ZM10.3604 9.12054C10.9424 8.63525 11.3608 7.98245 11.5588 7.25093C11.7566 6.51941 11.7242 5.7447 11.4662 5.03219C11.2081 4.31968 10.7368 3.70397 10.1164 3.26881C9.49601 2.83367 8.7566 2.60022 7.9988 2.60022C7.24099 2.60022 6.50158 2.83367 5.88117 3.26881C5.26076 3.70397 4.78945 4.31968 4.5314 5.03219C4.27333 5.7447 4.24103 6.51941 4.43889 7.25093C4.63675 7.98245 5.05516 8.63525 5.6372 9.12054C4.72962 9.54961 3.9558 10.2174 3.3986 11.0525C2.84139 11.8876 2.52178 12.8584 2.47396 13.8612C2.46952 14.0419 2.53599 14.2172 2.65917 14.3494C2.78233 14.4817 2.9524 14.5605 3.13295 14.5689C3.3135 14.5774 3.49017 14.5148 3.62514 14.3946C3.7601 14.2744 3.84264 14.1061 3.85506 13.9258C3.90532 12.8605 4.36389 11.8554 5.13557 11.1193C5.90725 10.3832 6.93277 9.97249 7.99926 9.97249C9.06574 9.97249 10.0913 10.3832 10.8629 11.1193C11.6346 11.8554 12.0932 12.8605 12.1435 13.9258C12.1458 14.0179 12.1663 14.1085 12.2041 14.1925C12.2419 14.2765 12.2961 14.3521 12.3635 14.4148C12.4309 14.4776 12.5102 14.5263 12.5966 14.558C12.6831 14.5897 12.775 14.6038 12.867 14.5995C12.959 14.5952 13.0492 14.5725 13.1323 14.5329C13.2154 14.4932 13.2898 14.4375 13.351 14.3687C13.4123 14.2999 13.4592 14.2196 13.489 14.1325C13.5188 14.0454 13.5309 13.9531 13.5245 13.8612C13.4766 12.8583 13.1569 11.8874 12.5995 11.0523C12.0421 10.2173 11.2682 9.54949 10.3604 9.12054Z" fill="#272431"/>
</svg>
