<svg xmlns="http://www.w3.org/2000/svg" width="16" height="17" viewBox="0 0 16 17"><path fill-rule="evenodd" d="M11 13.798a6 6 0 11.019-.01c-.013.013-.02.018-.02.01zM3.124 8.6a4.875 4.875 0 118.373 3.395 4.007 4.007 0 00-1.79-1.675 2.67 2.67 0 00-3.242-4.236 2.67 2.67 0 00-.176 4.236 4.006 4.006 0 00-1.79 1.675A4.859 4.859 0 013.126 8.6zm2.162 4.051c.775.52 1.709.824 2.713.824a4.853 4.853 0 002.712-.823 3.004 3.004 0 00-5.425 0zM9.179 9.45a1.668 1.668 0 10-2.36-2.36 1.668 1.668 0 002.36 2.36z"/></svg>