<svg width="16" height="17" viewBox="0 0 16 17" fill="none" xmlns="http://www.w3.org/2000/svg">
<path fill-rule="evenodd" clip-rule="evenodd" d="M10.9991 13.7981C10.1168 14.3082 9.09248 14.6002 8 14.6002C4.68629 14.6002 2 11.9139 2 8.60022C2 5.28651 4.68629 2.60022 8 2.60022C11.3137 2.60022 14 5.28651 14 8.60022C14 10.8137 12.8014 12.7473 11.0178 13.7872C11.0061 13.8011 10.9994 13.8057 10.9991 13.7981ZM3.125 8.60022C3.125 5.90783 5.30761 3.72522 8 3.72522C10.6924 3.72522 12.875 5.90783 12.875 8.60022C12.875 9.92015 12.3505 11.1176 11.4984 11.9953C11.4459 11.9009 11.3895 11.8084 11.3292 11.718C10.9257 11.1136 10.3655 10.6302 9.70846 10.3198C10.1297 9.96851 10.4326 9.496 10.5759 8.96651C10.7191 8.43701 10.6956 7.87626 10.5089 7.36053C10.3221 6.8448 9.98093 6.39914 9.53188 6.08416C9.0828 5.7692 8.5476 5.60022 7.99908 5.60022C7.45057 5.60022 6.91537 5.7692 6.4663 6.08416C6.01723 6.39914 5.67609 6.8448 5.4893 7.36053C5.30251 7.87626 5.27913 8.43701 5.42234 8.96651C5.56556 9.496 5.86841 9.96851 6.28971 10.3198C5.63278 10.6303 5.07267 11.1137 4.66936 11.7182C4.60931 11.8082 4.55307 11.9003 4.50073 11.9945C3.64921 11.1168 3.125 9.91971 3.125 8.60022ZM5.28683 12.6511C6.06243 13.1716 6.99575 13.4752 8 13.4752C9.00388 13.4752 9.93688 13.1718 10.7123 12.6517C10.5562 12.3229 10.3403 12.0223 10.0722 11.7665C9.51366 11.2337 8.77136 10.9364 7.99942 10.9364C7.22747 10.9364 6.48518 11.2337 5.92662 11.7665C5.65866 12.0221 5.44287 12.3225 5.28683 12.6511ZM9.17911 9.44874C9.49197 9.13586 9.66775 8.71152 9.66775 8.26905C9.66775 7.82658 9.49197 7.40223 9.17911 7.08936C8.86623 6.77649 8.44188 6.60072 7.99942 6.60072C7.55695 6.60072 7.1326 6.77649 6.81973 7.08936C6.50685 7.40223 6.33108 7.82658 6.33108 8.26905C6.33108 8.71152 6.50685 9.13586 6.81973 9.44874C7.1326 9.76162 7.55695 9.93738 7.99942 9.93738C8.44188 9.93738 8.86623 9.76162 9.17911 9.44874Z" fill="#272431"/>
</svg>
