<svg xmlns="http://www.w3.org/2000/svg" width="16" height="17" viewBox="0 0 16 17"><path d="M2.83 2.703l2.209-.509a1.07 1.07 0 011.226.624l1.02 2.38c.187.435.06.95-.308 1.251l-.937.767a7.29 7.29 0 002.911 2.909l.767-.938c.3-.368.816-.495 1.252-.307l2.38 1.02c.479.204.739.72.624 1.226l-.509 2.208c-.112.49-.544.832-1.045.832C6.68 14.17 1.998 9.52 1.998 3.748c0-.501.342-.933.832-1.045zm9.146 10.33a.483.483 0 00.49-.38l.306-1.329a.5.5 0 00-.29-.571l-1.572-.675a.5.5 0 00-.584.144l-.673.822a.773.773 0 01-.954.206c-1.78-.928-2.854-1.999-3.783-3.782a.773.773 0 01.206-.954l.823-.673a.5.5 0 00.143-.584l-.674-1.572a.5.5 0 00-.572-.29l-1.33.306a.483.483 0 00-.378.49 9.295 9.295 0 008.842 8.842z"/></svg>