<svg width="16" height="17" viewBox="0 0 16 17" fill="none" xmlns="http://www.w3.org/2000/svg">
<path fill-rule="evenodd" clip-rule="evenodd" d="M8.00004 2.16779C7.85537 2.16779 7.71664 2.22525 7.61435 2.32754C7.51206 2.42983 7.45459 2.56857 7.45459 2.71323V8.16769C7.45459 8.46893 7.69879 8.71313 8.00004 8.71313H13.4545C13.7557 8.71313 13.9999 8.46893 13.9999 8.16769C13.9999 7.37977 13.8447 6.59957 13.5432 5.87162C13.2417 5.14368 12.7997 4.48226 12.2426 3.92512C11.6855 3.36797 11.024 2.92602 10.2961 2.6245C9.56816 2.32298 8.78795 2.16779 8.00004 2.16779ZM8.54548 7.62224V3.28907C9.00288 3.34021 9.45174 3.45553 9.87863 3.63235C10.4742 3.87905 11.0154 4.24065 11.4712 4.69649C11.9271 5.15234 12.2887 5.6935 12.5354 6.28909C12.7122 6.71598 12.8275 7.16484 12.8786 7.62224H8.54548Z" fill="#272431"/>
<path d="M6.03649 3.66586C6.31259 3.54538 6.43874 3.22389 6.31826 2.94779C6.19777 2.67169 5.87628 2.54554 5.60018 2.66603C4.70193 3.05801 3.91337 3.66407 3.30345 4.43121C2.69353 5.19836 2.28082 6.10324 2.1014 7.06673C1.92198 8.03023 1.98132 9.02301 2.27422 9.95827C2.56712 10.8935 3.08467 11.7428 3.78162 12.4319C4.47858 13.1209 5.33371 13.6287 6.27226 13.9109C7.21081 14.1931 8.2042 14.2411 9.16559 14.0507C10.127 13.8603 11.0271 13.4373 11.7872 12.8186C12.5473 12.2 13.1443 11.4046 13.526 10.5019C13.6434 10.2244 13.5136 9.90441 13.2361 9.78709C12.9587 9.66976 12.6386 9.79957 12.5213 10.077C12.209 10.8156 11.7205 11.4664 11.0986 11.9725C10.4767 12.4787 9.74023 12.8248 8.95364 12.9806C8.16706 13.1364 7.35428 13.0971 6.58638 12.8662C5.81847 12.6353 5.11882 12.2198 4.54858 11.6561C3.97835 11.0923 3.5549 10.3975 3.31525 9.63225C3.0756 8.86703 3.02706 8.05476 3.17385 7.26644C3.32065 6.47813 3.65832 5.73777 4.15735 5.11011C4.65637 4.48244 5.30156 3.98658 6.03649 3.66586Z" fill="#272431"/>
</svg>
