<svg width="16" height="17" viewBox="0 0 16 17" fill="none" xmlns="http://www.w3.org/2000/svg">
<path fill-rule="evenodd" clip-rule="evenodd" d="M3.125 8.20044C3.125 5.50805 5.30761 3.32544 8 3.32544C10.6924 3.32544 12.875 5.50805 12.875 8.20044C12.875 10.8929 10.6924 13.0754 8 13.0754C5.30761 13.0754 3.125 10.8929 3.125 8.20044ZM8 2.20044C4.68629 2.20044 2 4.88673 2 8.20044C2 11.5142 4.68629 14.2004 8 14.2004C11.3137 14.2004 14 11.5142 14 8.20044C14 4.88673 11.3137 2.20044 8 2.20044ZM8.5625 5.76294C8.5625 5.45228 8.31066 5.20044 8 5.20044C7.68934 5.20044 7.4375 5.45228 7.4375 5.76294V7.63794H5.5625C5.25184 7.63794 5 7.88978 5 8.20044C5 8.5111 5.25184 8.76294 5.5625 8.76294H7.4375V10.6379C7.4375 10.9486 7.68934 11.2004 8 11.2004C8.31066 11.2004 8.5625 10.9486 8.5625 10.6379V8.76294H10.4375C10.7481 8.76294 11 8.5111 11 8.20044C11 7.88978 10.7481 7.63794 10.4375 7.63794H8.5625V5.76294Z" fill="#272431"/>
</svg>
