<svg width="16" height="17" viewBox="0 0 16 17" fill="none" xmlns="http://www.w3.org/2000/svg">
<path fill-rule="evenodd" clip-rule="evenodd" d="M8 2.20044C8.20756 2.20044 8.40662 2.2829 8.55339 2.42966C8.70015 2.57643 8.78261 2.77549 8.78261 2.98305V7.41783H13.2174C13.4249 7.41783 13.624 7.50029 13.7707 7.64705C13.9176 7.79382 14 7.99288 14 8.20044C14 8.408 13.9176 8.60706 13.7707 8.75383C13.624 8.90059 13.4249 8.98305 13.2174 8.98305H8.78261V13.4178C8.78261 13.6254 8.70015 13.8245 8.55339 13.9712C8.40662 14.118 8.20756 14.2004 8 14.2004C7.79244 14.2004 7.59338 14.118 7.44661 13.9712C7.29985 13.8245 7.21739 13.6254 7.21739 13.4178V8.98305H2.78261C2.57505 8.98305 2.37599 8.90059 2.22922 8.75383C2.08246 8.60706 2 8.408 2 8.20044C2 7.99288 2.08246 7.79382 2.22922 7.64705C2.37599 7.50029 2.57505 7.41783 2.78261 7.41783H7.21739V2.98305C7.21739 2.77549 7.29985 2.57643 7.44661 2.42966C7.59338 2.2829 7.79244 2.20044 8 2.20044Z" fill="#272431"/>
</svg>
