<svg xmlns="http://www.w3.org/2000/svg" width="16" height="17" viewBox="0 0 16 17"><path fill-rule="evenodd" d="M4.182 2.712c0-.301.244-.546.545-.546h6.546c.301 0 .545.245.545.546v3.273h.546A1.636 1.636 0 0114 7.62v2.727a1.636 1.636 0 01-1.636 1.637h-.546v1.636a.545.545 0 01-.545.545H4.727a.545.545 0 01-.545-.545v-1.636h-.546A1.636 1.636 0 012 10.348V7.621a1.636 1.636 0 011.636-1.636h.546V2.712zm0 8.182V9.257c0-.3.244-.545.545-.545h6.546c.301 0 .545.244.545.545v1.637h.546a.545.545 0 00.545-.546V7.621a.545.545 0 00-.545-.546H3.636a.545.545 0 00-.545.546v2.727a.545.545 0 00.545.546h.546zm6.545.537V9.803H5.273v3.272h5.454v-1.644zm0-8.174v2.728H5.273V3.257h5.454z"/></svg>