<svg xmlns="http://www.w3.org/2000/svg" width="16" height="17" viewBox="0 0 16 17"><path fill-rule="evenodd" d="M8 3.291a4.875 4.875 0 100 9.75 4.875 4.875 0 000-9.75zM2 8.166a6 6 0 1112 0 6 6 0 01-12 0zm6.75 2.25a.75.75 0 11-1.5 0 .75.75 0 011.5 0zM7.19 6.73a.755.755 0 01.255-.299c.108-.072.278-.14.555-.14.21 0 .415.065.553.17a.46.46 0 01.197.393c0 .132-.03.198-.058.239a.717.717 0 01-.207.184 4.88 4.88 0 01-.194.12l-.005.003c-.07.042-.153.092-.235.146a1.812 1.812 0 00-.519.496.562.562 0 10.936.624.716.716 0 01.207-.184 4.88 4.88 0 01.194-.12l.005-.003c.07-.042.153-.092.235-.146.167-.112.366-.266.52-.496.16-.24.246-.527.246-.863 0-.57-.27-1.011-.647-1.294A2.07 2.07 0 008 5.166c-.473 0-.866.12-1.18.33a1.878 1.878 0 00-.636.731.563.563 0 101.007.503z"/></svg>