<svg xmlns="http://www.w3.org/2000/svg" width="16" height="17" viewBox="0 0 16 17"><path d="M2.262 9.55a.597.597 0 00-.362.55v3a.6.6 0 101.2 0v-1.613l1.302 1.224a5.1 5.1 0 008.409-1.91.6.6 0 10-1.132-.401 3.9 3.9 0 01-6.435 1.456l-.013-.013L4.015 10.7H5.5a.6.6 0 100-1.2h-3a.598.598 0 00-.238.05zm11.476-1.399a.597.597 0 00.362-.55v-3a.6.6 0 10-1.2 0v1.612l-1.302-1.224A5.1 5.1 0 003.189 6.9a.6.6 0 001.132.4 3.9 3.9 0 016.435-1.456l.013.013L11.985 7H10.5a.6.6 0 100 1.2h3a.598.598 0 00.238-.049z"/></svg>