<svg width="16" height="17" viewBox="0 0 16 17" fill="none" xmlns="http://www.w3.org/2000/svg">
<path fill-rule="evenodd" clip-rule="evenodd" d="M10.6935 9.07155C10.9539 8.8112 10.9539 8.38909 10.6935 8.12874L7.36025 4.79546C7.09991 4.53511 6.6778 4.53511 6.41745 4.79546C6.15711 5.05582 6.15711 5.47786 6.41745 5.73821L8.6127 7.93348L2.66666 7.93348C2.29848 7.93348 2 8.23196 2 8.60014C2 8.96833 2.29848 9.26681 2.66666 9.26681L8.6127 9.26681L6.41745 11.4621C6.15711 11.7224 6.15711 12.1445 6.41745 12.4049C6.6778 12.6652 7.09991 12.6652 7.36025 12.4049L10.6935 9.07155ZM12.6667 12.3779C12.6667 12.7461 12.9652 13.0446 13.3333 13.0446C13.7015 13.0446 14 12.7461 14 12.3779L14 4.82239C14 4.45422 13.7015 4.15573 13.3333 4.15573C12.9652 4.15573 12.6667 4.45422 12.6667 4.82239L12.6667 12.3779Z" fill="#272431"/>
</svg>
