<svg xmlns="http://www.w3.org/2000/svg" width="16" height="17" viewBox="0 0 16 17"><path d="M13 3.166a8.94 8.94 0 00-7.01 3.951A3.816 3.816 0 003 7.849v.635a4.682 4.682 0 014.683 4.665v.009h.634a3.782 3.782 0 00.732-2.99A8.911 8.911 0 0013 3.166zM8.538 6.51c0-.618.503-1.12 1.12-1.12.617 0 1.12.502 1.12 1.12 0 .617-.503 1.12-1.12 1.12-.617 0-1.12-.503-1.12-1.12zm-3.959 4.24a1.23 1.23 0 00-1.526.847c-.035.106-.044.22-.044.335v1.234h1.235c.105 0 .202-.008.3-.035a1.231 1.231 0 00.89-1.499 1.25 1.25 0 00-.855-.882z"/></svg>