<svg width="16" height="17" viewBox="0 0 16 17" fill="none" xmlns="http://www.w3.org/2000/svg">
<path d="M11.2325 3.77274C10.1785 3.19008 8.96367 2.96574 7.77108 3.13353C6.58182 3.30085 5.4789 3.84908 4.62755 4.69592L3.19088 6.04589V4.26524C3.19088 3.90875 2.90189 3.61975 2.54539 3.61975C2.1889 3.61975 1.8999 3.90875 1.8999 4.26524V7.53818C1.8999 7.5387 1.8999 7.53923 1.8999 7.53975C1.89992 7.54511 1.89999 7.55047 1.90014 7.55583C1.90228 7.63547 1.91884 7.71151 1.94731 7.78144C1.97166 7.84134 2.00542 7.89841 2.04867 7.95042C2.06025 7.96436 2.0724 7.9778 2.0851 7.99071C2.14421 8.05089 2.21239 8.09709 2.28541 8.12917C2.36495 8.16421 2.4529 8.18367 2.54539 8.18367H5.81833C6.17482 8.18367 6.46382 7.89467 6.46382 7.53818C6.46382 7.18168 6.17482 6.89269 5.81833 6.89269H4.17496L5.51848 5.63024L5.53251 5.61666C6.18674 4.96353 7.03552 4.54071 7.95094 4.41192C8.86637 4.28312 9.79886 4.45532 10.6079 4.90257C11.417 5.34983 12.0587 6.0479 12.4366 6.89161C12.8144 7.73533 12.9078 8.67898 12.7026 9.58037C12.4975 10.4818 12.005 11.2921 11.2993 11.8892C10.5936 12.4864 9.71292 12.838 8.79001 12.8911C7.86709 12.9442 6.95191 12.696 6.18236 12.1837C5.4128 11.6715 4.83057 10.923 4.52338 10.0511C4.40492 9.71489 4.03632 9.53835 3.70008 9.65681C3.36384 9.77527 3.1873 10.1439 3.30576 10.4801C3.70596 11.616 4.46447 12.5911 5.46702 13.2584C6.46957 13.9257 7.66184 14.2492 8.86419 14.18C10.0665 14.1108 11.2138 13.6527 12.1332 12.8747C13.0526 12.0968 13.6942 11.0411 13.9614 9.86683C14.2287 8.69252 14.107 7.46316 13.6148 6.364C13.1226 5.26484 12.2865 4.35541 11.2325 3.77274Z" fill="#272431"/>
</svg>
