<svg width="16" height="17" viewBox="0 0 16 17" fill="none" xmlns="http://www.w3.org/2000/svg">
<path d="M8.23565 3.09974C7.04304 2.93058 5.82776 3.15361 4.77294 3.73523C3.71811 4.31685 2.8809 5.22554 2.38745 6.32438C1.89401 7.42322 1.77106 8.65266 2.03715 9.82745C2.30323 11.0022 2.94393 12.0587 3.86269 12.8377C4.78146 13.6167 5.92851 14.0759 7.131 14.1463C8.33349 14.2166 9.52627 13.8943 10.5296 13.2277C11.5329 12.5612 12.2924 11.5866 12.6937 10.4509C12.8125 10.1147 12.6362 9.74591 12.3001 9.62714C11.9639 9.50838 11.5951 9.68461 11.4763 10.0208C11.1683 10.8926 10.5853 11.6407 9.81516 12.1523C9.04501 12.6639 8.12943 12.9114 7.2064 12.8574C6.28337 12.8034 5.40289 12.4509 4.69765 11.8529C3.99241 11.255 3.50061 10.444 3.29636 9.54224C3.09212 8.64047 3.18649 7.69675 3.56526 6.85329C3.94403 6.00982 4.58667 5.31231 5.39635 4.86586C6.20603 4.41941 7.13888 4.24821 8.05433 4.37806C8.96978 4.5079 9.81822 4.93177 10.4718 5.58577L10.4859 5.59941L11.8272 6.86256H10.181C9.82442 6.86256 9.5354 7.15158 9.5354 7.50811C9.5354 7.86464 9.82442 8.15367 10.181 8.15367H13.4543C13.554 8.15367 13.6484 8.13106 13.7327 8.09069C13.8028 8.05725 13.8679 8.01052 13.9243 7.95062C14.0441 7.82348 14.1022 7.66058 14.0998 7.49873V4.23479C14.0998 3.87826 13.8108 3.58923 13.4543 3.58923C13.0977 3.58923 12.8087 3.87826 12.8087 4.23479V6.01335L11.3779 4.66599C10.5274 3.81802 9.42493 3.26843 8.23565 3.09974Z" fill="#272431"/>
</svg>
