<svg width="16" height="17" viewBox="0 0 16 17" fill="none" xmlns="http://www.w3.org/2000/svg">
<path fill-rule="evenodd" clip-rule="evenodd" d="M7.40009 2.05054C4.33491 2.05054 1.8501 4.53535 1.8501 7.60053C1.8501 10.6657 4.33491 13.1505 7.40009 13.1505C8.66226 13.1505 9.82603 12.7292 10.7584 12.0195L12.8697 14.1308C13.1626 14.4237 13.6375 14.4237 13.9304 14.1308C14.2233 13.8379 14.2233 13.363 13.9304 13.0701L11.8191 10.9589C12.5288 10.0265 12.9501 8.8627 12.9501 7.60053C12.9501 4.53535 10.4653 2.05054 7.40009 2.05054ZM10.3245 10.4023C11.0217 9.67484 11.4501 8.68771 11.4501 7.60053C11.4501 5.36378 9.63684 3.55054 7.40009 3.55054C5.16334 3.55054 3.3501 5.36378 3.3501 7.60053C3.3501 9.83728 5.16334 11.6505 7.40009 11.6505C8.48727 11.6505 9.4744 11.2221 10.2019 10.525C10.2197 10.5025 10.239 10.4809 10.2597 10.4601C10.2805 10.4394 10.3021 10.4201 10.3245 10.4023Z" fill="#272431"/>
</svg>
