<svg xmlns="http://www.w3.org/2000/svg" width="16" height="17" viewBox="0 0 16 17"><path d="M6.364 7.075a.545.545 0 10-1.091 0 2.727 2.727 0 105.454 0 .546.546 0 00-1.09 0 1.636 1.636 0 11-3.273 0z"/><path fill-rule="evenodd" d="M4.29 2.385a.545.545 0 01.437-.219h6.546c.171 0 .333.081.436.219l1.633 2.177c.07.092.112.207.112.332v7.636a1.636 1.636 0 01-1.636 1.636H4.182a1.636 1.636 0 01-1.637-1.636V4.894c0-.125.042-.24.113-.332L4.29 2.385zm6.71.872l.818 1.091H4.182L5 3.258h6zM3.636 12.53V5.44h8.728v7.09a.545.545 0 01-.546.546H4.182a.545.545 0 01-.546-.546z"/></svg>