<svg xmlns="http://www.w3.org/2000/svg" width="16" height="17" viewBox="0 0 16 17"><path fill-rule="evenodd" d="M7.848 6.372a2.892 2.892 0 00-.209.31c-.283.513-.524.925-.748 1.307-.412.703-.764 1.305-1.208 2.25-.217.46-.504 1.324-.634 1.966l-.001.008a1.45 1.45 0 01-.03.126v.001a.635.635 0 01-.053.122v.002c-.013.022-.072.123-.195.197a.556.556 0 01-.64-.047.554.554 0 01-.167-.23v-.001a.578.578 0 01-.037-.16 4.26 4.26 0 01-.008-.199l-.005-.148a74.324 74.324 0 01-.029-3.04l.002-.339c0-.245-.014-1.086-.134-1.821-.062-.374-.142-.665-.23-.834a1.117 1.117 0 00-.263.235c-.115.134-.214.28-.33.45-.04.058-.08.119-.125.183-.4.577-.7 1.21-1.003 1.926a.555.555 0 01-1.023-.432c.31-.736.646-1.454 1.114-2.128l.093-.136c.122-.18.271-.4.433-.588.213-.247.502-.507.901-.626a.902.902 0 01.762.107c.2.13.332.319.42.486.177.334.28.774.347 1.177.135.825.15 1.74.148 2.005l-.001.339-.001.278c.333-.656.64-1.18.968-1.74.22-.377.45-.77.705-1.233l.455.252-.455-.252c.119-.215.328-.5.544-.752.207-.24.482-.523.745-.67a.6.6 0 01.675.058.692.692 0 01.205.298c.046.125.064.268.074.361a4.552 4.552 0 01.023.392v.007l.001.033v-.003c.027.36.036.847.045 1.345l.01.48c.011.535.03 1.038.074 1.428l.068-.081c.227-.28.471-.653.73-1.06.045-.071.09-.144.137-.216.209-.332.425-.674.63-.964.127-.178.258-.349.39-.494.129-.14.284-.285.464-.382a.867.867 0 01.722-.069c.24.09.386.27.47.406.153.243.25.58.32.822l.011.043c.069.237.122.41.174.527.348-.179.666-.536.954-1.275a.555.555 0 011.035.404c-.391 1.002-.931 1.668-1.736 1.972a.897.897 0 01-.72-.021 1.067 1.067 0 01-.437-.417c-.157-.256-.256-.6-.327-.85l-.01-.032a8.78 8.78 0 00-.111-.365 4.243 4.243 0 00-.293.374 21.23 21.23 0 00-.59.903l-.146.23c-.256.403-.531.826-.805 1.164-.137.169-.286.33-.443.462a1.396 1.396 0 01-.58.307.724.724 0 01-.853-.46 1.966 1.966 0 01-.103-.418L8.01 9.6c-.09-.506-.116-1.22-.131-1.882l-.01-.515c-.006-.3-.01-.583-.02-.831zm3.875.465l.003.003a.036.036 0 01-.003-.003z"/></svg>