<svg xmlns="http://www.w3.org/2000/svg" width="16" height="17" viewBox="0 0 16 17"><path fill-rule="evenodd" d="M8 2.43a.607.607 0 01.546.34l1.524 3.09 3.41.495a.607.607 0 01.337 1.036L11.35 9.796l.582 3.396a.607.607 0 01-.881.64L8 12.228l-3.05 1.604a.607.607 0 01-.882-.64l.584-3.396-2.47-2.405a.608.608 0 01.338-1.037l3.41-.495 1.525-3.09A.607.607 0 018 2.431zm0 1.981L6.88 6.683a.607.607 0 01-.457.332l-2.508.365 1.814 1.768a.608.608 0 01.175.538l-.428 2.498 2.243-1.18a.608.608 0 01.565 0l2.244 1.18-.43-2.498a.609.609 0 01.176-.538l1.814-1.768-2.508-.364a.607.607 0 01-.456-.332L8 4.41v.001z"/></svg>