<svg xmlns="http://www.w3.org/2000/svg" width="16" height="17" viewBox="0 0 16 17"><path fill-rule="evenodd" d="M8 2.43a.607.607 0 00-.546.34L5.93 5.86l-3.41.495a.607.607 0 00-.337 1.036L4.65 9.796l-.582 3.396a.608.608 0 00.881.64L8 12.228l3.05 1.604a.607.607 0 00.882-.64l-.584-3.396 2.47-2.405a.607.607 0 00-.338-1.037l-3.41-.495-1.525-3.09A.607.607 0 008 2.431zm0 1.981l1.12 2.272a.607.607 0 00.457.332l2.508.364-1.814 1.77a.608.608 0 00-.175.537l.428 2.498a136.52 136.52 0 00-2.526-1.249V4.411z"/></svg>