<svg xmlns="http://www.w3.org/2000/svg" width="16" height="17" viewBox="0 0 16 17"><path fill-rule="evenodd" d="M3.218 7.669V3.588a.203.203 0 01.203-.203h4.082a.203.203 0 01.143.059l5.076 5.076a.202.202 0 010 .288l-4.08 4.08a.201.201 0 01-.222.045.201.201 0 01-.066-.044L3.278 7.813a.203.203 0 01-.06-.144zM2 7.669V3.588c0-.785.637-1.422 1.421-1.422h4.082c.376 0 .739.15 1.005.417l5.076 5.076a1.421 1.421 0 010 2.01L9.502 13.75a1.421 1.421 0 01-2.01 0L2.418 8.674A1.422 1.422 0 012 7.67zm4.06-2.254a.812.812 0 100 1.624.812.812 0 000-1.624z"/></svg>