<svg width="16" height="17" viewBox="0 0 16 17" fill="none" xmlns="http://www.w3.org/2000/svg">
<path fill-rule="evenodd" clip-rule="evenodd" d="M2 3.88065C2 3.71016 2.06773 3.54664 2.18829 3.42608C2.30885 3.30552 2.47236 3.23779 2.64286 3.23779H13.3571C13.5276 3.23779 13.6912 3.30552 13.8117 3.42608C13.9323 3.54664 14 3.71016 14 3.88065C14 4.05114 13.9323 4.21466 13.8117 4.33522C13.6912 4.45578 13.5276 4.52351 13.3571 4.52351H2.64286C2.47236 4.52351 2.30885 4.45578 2.18829 4.33522C2.06773 4.21466 2 4.05114 2 3.88065ZM2 8.16636C2 7.99587 2.06773 7.83235 2.18829 7.7118C2.30885 7.59124 2.47236 7.52351 2.64286 7.52351H13.3571C13.5276 7.52351 13.6912 7.59124 13.8117 7.7118C13.9323 7.83235 14 7.99587 14 8.16636C14 8.33686 13.9323 8.50038 13.8117 8.62093C13.6912 8.74149 13.5276 8.80922 13.3571 8.80922H2.64286C2.47236 8.80922 2.30885 8.74149 2.18829 8.62093C2.06773 8.50038 2 8.33686 2 8.16636ZM2.64286 11.8092C2.47236 11.8092 2.30885 11.8769 2.18829 11.9975C2.06773 12.118 2 12.2816 2 12.4521C2 12.6226 2.06773 12.7861 2.18829 12.9066C2.30885 13.0272 2.47236 13.0949 2.64286 13.0949H13.3571C13.5276 13.0949 13.6912 13.0272 13.8117 12.9066C13.9323 12.7861 14 12.6226 14 12.4521C14 12.2816 13.9323 12.118 13.8117 11.9975C13.6912 11.8769 13.5276 11.8092 13.3571 11.8092H2.64286Z" fill="#272431"/>
</svg>
