<svg xmlns="http://www.w3.org/2000/svg" width="16" height="17" viewBox="0 0 16 17"><path fill-rule="evenodd" d="M13.922 8.155c.007 3.306-2.69 6.01-5.995 6.011a5.973 5.973 0 01-3.42-1.066l-.108-.086a.58.58 0 01.717-.913l.11.085c.77.517 1.698.82 2.697.82a4.836 4.836 0 004.838-4.84 4.836 4.836 0 00-4.838-4.838 4.823 4.823 0 00-3.434 1.428l1.188 1.171a.29.29 0 01-.204.497H2.368a.29.29 0 01-.29-.29V3.072a.29.29 0 01.494-.206l1.09 1.076a6 6 0 0110.26 4.214zM8.127 6.317a.505.505 0 00-1.01 0v2.357a.505.505 0 00.317.468l1.684.674a.505.505 0 00.375-.938l-1.366-.546V6.317z"/></svg>