<svg xmlns="http://www.w3.org/2000/svg" width="16" height="17" viewBox="0 0 16 17"><path fill-rule="evenodd" d="M5.904 3.394a3.669 3.669 0 00-1.578 3.017c0 1.305.68 2.45 1.707 3.103.422.269.758.754.736 1.34v.007l-.134 2.723a.612.612 0 11-1.223-.06l.133-2.718c.002-.07-.04-.176-.169-.258A4.895 4.895 0 013.102 6.41c0-1.663.83-3.133 2.095-4.017a1.21 1.21 0 011.366-.032c.377.241.62.675.62 1.162v2.301c0 .068.034.13.09.169l.612.416c.07.047.16.047.23 0l.612-.416a.204.204 0 00.09-.169v-2.3c0-.487.243-.92.62-1.162a1.21 1.21 0 011.366.032 4.893 4.893 0 012.095 4.017c0 1.74-.908 3.269-2.274 4.137-.129.082-.17.189-.169.258l.133 2.718a.612.612 0 11-1.223.06l-.134-2.73c-.022-.586.314-1.071.736-1.34a3.67 3.67 0 001.707-3.103 3.669 3.669 0 00-1.578-3.017c-.02.014-.055.055-.055.13v2.301c0 .473-.235.916-.626 1.182l-.612.416a1.429 1.429 0 01-1.606 0l-.612-.416a1.429 1.429 0 01-.626-1.182V3.524c0-.075-.035-.116-.055-.13zm.009-.004z"/></svg>