<svg width="16" height="16" viewBox="0 0 16 16" fill="none" xmlns="http://www.w3.org/2000/svg">
<path fill-rule="evenodd" clip-rule="evenodd" d="M6.00005 5.20046C5.99998 4.76784 6.14019 4.34686 6.39965 4.00068C6.65911 3.6545 7.02384 3.40179 7.4391 3.28047C7.85435 3.15915 8.29776 3.17575 8.70278 3.32779C9.10781 3.47983 9.45261 3.7591 9.68546 4.12371C9.77113 4.2578 9.90665 4.35235 10.0621 4.38655C10.2175 4.42075 10.3801 4.39182 10.5142 4.3061C10.6483 4.22039 10.7428 4.08492 10.7771 3.9295C10.8112 3.77407 10.7823 3.61144 10.6966 3.47735C10.324 2.89402 9.77233 2.44724 9.12426 2.20403C8.47623 1.96082 7.7668 1.93431 7.10241 2.12846C6.43802 2.32261 5.85451 2.72696 5.4394 3.28084C5.02429 3.83473 4.79998 4.50828 4.80011 5.20046V6.80037H4.39933C4.08123 6.80059 3.77622 6.9271 3.55137 7.15212C3.32651 7.37712 3.2002 7.68221 3.2002 8.00031V12.8001C3.2002 13.1183 3.32662 13.4236 3.55165 13.6486C3.77668 13.8736 4.08189 14 4.40013 14H11.5998C11.918 14 12.2232 13.8736 12.4483 13.6486C12.6733 13.4236 12.7997 13.1183 12.7997 12.8001V8.00031C12.7997 7.68207 12.6733 7.37686 12.4483 7.15183C12.2232 6.9268 11.918 6.80037 11.5998 6.80037H6.00005V5.20046ZM5.40008 8.00031H4.40013V12.8001H11.5998V8.00031H5.40008Z" fill="#272431"/>
</svg>
