<svg width="16" height="17" viewBox="0 0 16 17" fill="none" xmlns="http://www.w3.org/2000/svg">
<path fill-rule="evenodd" clip-rule="evenodd" d="M8.47139 2.79548C8.21104 2.53513 7.78893 2.53513 7.52858 2.79548L4.19525 6.12881C3.9349 6.38916 3.9349 6.81128 4.19525 7.07162C4.4556 7.33197 4.87771 7.33197 5.13806 7.07162L7.33332 4.87636V10.8224C7.33332 11.1906 7.6318 11.4891 7.99999 11.4891C8.36817 11.4891 8.66665 11.1906 8.66665 10.8224V4.87636L10.8619 7.07162C11.1223 7.33197 11.5443 7.33197 11.8047 7.07162C12.0651 6.81128 12.0651 6.38916 11.8047 6.12881L8.47139 2.79548ZM4.22221 13.2669C3.85402 13.2669 3.55554 13.5654 3.55554 13.9336C3.55554 14.3017 3.85402 14.6002 4.22221 14.6002H11.7778C12.1459 14.6002 12.4444 14.3017 12.4444 13.9336C12.4444 13.5654 12.1459 13.2669 11.7778 13.2669H4.22221Z" fill="#272431"/>
</svg>
