<svg xmlns="http://www.w3.org/2000/svg" width="16" height="17" viewBox="0 0 16 17"><path fill-rule="evenodd" d="M14 4.979a.562.562 0 00-.852-.482L10.25 6.235V5.73c0-.725-.588-1.313-1.313-1.313H3.314A1.311 1.311 0 002 5.73v4.875c0 .725.588 1.312 1.313 1.312h5.624c.725 0 1.313-.587 1.313-1.312v-.507l2.898 1.74a.562.562 0 00.852-.483V4.979zm-3.75 3.806l2.625 1.575V5.972L10.25 7.547v1.238zM9.125 7.23v-1.5a.188.188 0 00-.188-.188H3.314a.188.188 0 00-.188.188v4.875c0 .104.084.187.188.187h5.624a.187.187 0 00.188-.187V7.229z"/></svg>