<svg width="16" height="17" viewBox="0 0 16 17" fill="none" xmlns="http://www.w3.org/2000/svg">
<path fill-rule="evenodd" clip-rule="evenodd" d="M3.2427 3.46457C3.3983 3.30916 3.60923 3.22187 3.82915 3.22187C4.04907 3.22187 4.25999 3.30916 4.4156 3.46457L7.97856 7.02753L11.5415 3.46457C11.6175 3.38303 11.7092 3.31764 11.811 3.27228C11.9128 3.22693 12.0226 3.20254 12.1341 3.20057C12.2455 3.1986 12.3561 3.2191 12.4595 3.26084C12.5628 3.30258 12.6567 3.3647 12.7354 3.4435C12.8143 3.52231 12.8764 3.61619 12.9181 3.71951C12.9598 3.82285 12.9804 3.93353 12.9784 4.04496C12.9764 4.15639 12.9521 4.26628 12.9067 4.36808C12.8614 4.46988 12.796 4.5615 12.7144 4.63747L9.15146 8.20043L12.7144 11.7634C12.796 11.8394 12.8614 11.931 12.9067 12.0328C12.9521 12.1346 12.9764 12.2445 12.9784 12.3559C12.9804 12.4674 12.9598 12.578 12.9181 12.6814C12.8764 12.7847 12.8143 12.8785 12.7354 12.9573C12.6567 13.0362 12.5628 13.0983 12.4595 13.14C12.3561 13.1817 12.2455 13.2023 12.1341 13.2003C12.0226 13.1983 11.9128 13.174 11.811 13.1286C11.7092 13.0832 11.6175 13.0178 11.5415 12.9363L7.97856 9.37333L4.4156 12.9363C4.25828 13.0829 4.0502 13.1627 3.8352 13.1589C3.62021 13.1551 3.41508 13.068 3.26303 12.9159C3.11098 12.7639 3.02389 12.5588 3.02009 12.3438C3.0163 12.1288 3.09611 11.9207 3.2427 11.7634L6.80566 8.20043L3.2427 4.63747C3.08729 4.48187 3 4.27094 3 4.05102C3 3.8311 3.08729 3.62018 3.2427 3.46457Z" fill="#272431"/>
</svg>
