<svg width="16" height="17" viewBox="0 0 16 17" fill="none" xmlns="http://www.w3.org/2000/svg">
<path d="M6.52275 5.92769C6.30308 5.70802 5.94692 5.70802 5.72725 5.92769C5.50758 6.14736 5.50758 6.50352 5.72725 6.72319L7.2045 8.20044L5.72725 9.67769C5.50758 9.89736 5.50758 10.2535 5.72725 10.4732C5.94692 10.6929 6.30308 10.6929 6.52275 10.4732L8 8.99593L9.47725 10.4732C9.69692 10.6929 10.0531 10.6929 10.2727 10.4732C10.4924 10.2535 10.4924 9.89736 10.2727 9.67769L8.7955 8.20044L10.2727 6.72319C10.4924 6.50352 10.4924 6.14737 10.2727 5.9277C10.0531 5.70803 9.69692 5.70803 9.47725 5.9277L8 7.40495L6.52275 5.92769Z" fill="#272431"/>
<path fill-rule="evenodd" clip-rule="evenodd" d="M3.75736 3.9578C1.41421 6.30094 1.41421 10.0999 3.75736 12.4431C6.1005 14.7862 9.8995 14.7862 12.2426 12.4431C14.5858 10.0999 14.5858 6.30094 12.2426 3.9578C9.8995 1.61465 6.1005 1.61465 3.75736 3.9578ZM4.55285 11.6476C2.64905 9.74378 2.64905 6.6571 4.55285 4.75329C6.45666 2.84949 9.54334 2.84949 11.4471 4.75329C13.351 6.6571 13.351 9.74378 11.4471 11.6476C9.54334 13.5514 6.45666 13.5514 4.55285 11.6476Z" fill="#272431"/>
</svg>
