<svg width="16" height="17" viewBox="0 0 16 17" fill="none" xmlns="http://www.w3.org/2000/svg">
<path fill-rule="evenodd" clip-rule="evenodd" d="M14 8.49982C14 11.8135 11.3137 14.4998 8 14.4998C4.68629 14.4998 2 11.8135 2 8.49982C2 5.18611 4.68629 2.49982 8 2.49982C11.3137 2.49982 14 5.18611 14 8.49982ZM10.1562 6.06581C10.0948 6.04101 10.029 6.02881 9.96277 6.02998C9.89653 6.03116 9.83121 6.04565 9.77069 6.07262C9.71074 6.09933 9.65673 6.13773 9.6118 6.18556L7.9949 7.80246L6.37679 6.18434C6.28429 6.09196 6.1589 6.04006 6.02816 6.04006C5.89742 6.04006 5.77194 6.09205 5.67944 6.18444C5.58705 6.27694 5.53516 6.40233 5.53516 6.53307C5.53516 6.6638 5.58709 6.78924 5.67948 6.88174L7.29755 8.49981L5.67944 10.1178L5.67703 10.1204C5.58989 10.2139 5.54244 10.3376 5.5447 10.4654C5.54695 10.5932 5.59873 10.7152 5.68912 10.8056C5.77952 10.896 5.9015 10.9477 6.02928 10.95C6.15707 10.9523 6.28081 10.9049 6.37434 10.8177L7.9949 9.19717L9.6118 10.8141C9.65673 10.8619 9.71073 10.9003 9.77068 10.927C9.83123 10.954 9.89655 10.9685 9.96275 10.9696C10.0291 10.9708 10.0948 10.9586 10.1562 10.9338C10.2176 10.909 10.2734 10.8721 10.3203 10.8252C10.3672 10.7783 10.4041 10.7225 10.4289 10.6611C10.4537 10.5997 10.4659 10.534 10.4647 10.4677C10.4636 10.4015 10.4491 10.3361 10.4221 10.2756C10.3954 10.2156 10.357 10.1616 10.3092 10.1167L8.69226 8.49981L10.3091 6.88292C10.357 6.83801 10.3954 6.784 10.4221 6.72405C10.4491 6.66351 10.4636 6.59818 10.4647 6.53198C10.4659 6.46567 10.4537 6.39987 10.4289 6.3385C10.4041 6.27711 10.3672 6.22129 10.3203 6.17441C10.2735 6.12756 10.2177 6.09063 10.1562 6.06581Z" fill="#272431"/>
</svg>
