<svg width="16" height="17" viewBox="0 0 16 17" fill="none" xmlns="http://www.w3.org/2000/svg">
<path d="M7.40005 5.20044C7.73142 5.20044 8.00005 5.46907 8.00005 5.80044V7.00043H9.19999C9.53137 7.00043 9.79999 7.26906 9.79999 7.60043C9.79999 7.9318 9.53137 8.20043 9.19999 8.20043H8.00005V9.40043C8.00005 9.7318 7.73142 10.0004 7.40005 10.0004C7.06868 10.0004 6.80005 9.7318 6.80005 9.40043V8.20043H5.6C5.26863 8.20043 5 7.9318 5 7.60043C5 7.26906 5.26863 7.00043 5.6 7.00043H6.80005V5.80044C6.80005 5.46907 7.06868 5.20044 7.40005 5.20044Z" fill="#272431"/>
<path fill-rule="evenodd" clip-rule="evenodd" d="M10.7706 11.8196C9.84677 12.5586 8.67498 13.0004 7.39999 13.0004C4.41766 13.0004 2 10.5828 2 7.60043C2 4.6181 4.41766 2.20044 7.39999 2.20044C10.3823 2.20044 12.8 4.6181 12.8 7.60043C12.8 8.87545 12.3581 10.0473 11.6191 10.9711L13.8242 13.1762C14.0585 13.4105 14.0585 13.7904 13.8242 14.0247C13.5899 14.259 13.21 14.259 12.9757 14.0247L10.7706 11.8196ZM3.2 7.60043C3.2 5.28084 5.0804 3.40044 7.39999 3.40044C9.71959 3.40044 11.6 5.28084 11.6 7.60043C11.6 8.73195 11.1525 9.75896 10.4249 10.5142C10.4043 10.53 10.3845 10.5473 10.3657 10.5662C10.3468 10.585 10.3295 10.6048 10.3137 10.6254C9.55847 11.353 8.53148 11.8004 7.39999 11.8004C5.0804 11.8004 3.2 9.92003 3.2 7.60043Z" fill="#272431"/>
</svg>
