<svg width="16" height="17" viewBox="0 0 16 17" fill="none" xmlns="http://www.w3.org/2000/svg">
<path d="M5.6 7.00043C5.26863 7.00043 5 7.26906 5 7.60043C5 7.9318 5.26863 8.20043 5.6 8.20043H9.19999C9.53137 8.20043 9.79999 7.9318 9.79999 7.60043C9.79999 7.26906 9.53137 7.00043 9.19999 7.00043H5.6Z" fill="#272431"/>
<path fill-rule="evenodd" clip-rule="evenodd" d="M7.39999 13.0004C8.67498 13.0004 9.84677 12.5586 10.7706 11.8196L12.9757 14.0247C13.21 14.259 13.5899 14.259 13.8242 14.0247C14.0585 13.7904 14.0585 13.4105 13.8242 13.1762L11.6191 10.9711C12.3581 10.0473 12.8 8.87545 12.8 7.60043C12.8 4.6181 10.3823 2.20044 7.39999 2.20044C4.41766 2.20044 2 4.6181 2 7.60043C2 10.5828 4.41766 13.0004 7.39999 13.0004ZM7.39999 3.40044C5.0804 3.40044 3.2 5.28084 3.2 7.60043C3.2 9.92003 5.0804 11.8004 7.39999 11.8004C8.53148 11.8004 9.55847 11.353 10.3137 10.6254C10.3295 10.6048 10.3468 10.585 10.3657 10.5662C10.3845 10.5473 10.4043 10.53 10.4249 10.5142C11.1525 9.75896 11.6 8.73195 11.6 7.60043C11.6 5.28084 9.71959 3.40044 7.39999 3.40044Z" fill="#272431"/>
</svg>
